<svg width="375" height="242" viewBox="0 0 375 242" fill="none" xmlns="http://www.w3.org/2000/svg">
<g filter="url(#filter0_di)">
<path d="M93.2743 119.673C92.3829 118.032 93.3146 115.993 95.1393 115.593L200.978 92.3885C202.442 92.0674 203.901 92.9547 204.289 94.4032L211.022 119.53C211.437 121.079 210.471 122.661 208.903 122.999L109.075 144.546C107.857 144.808 106.612 144.237 106.017 143.142L93.2743 119.673Z" fill="#8B80E8"/>
</g>
<g filter="url(#filter1_di)">
<path d="M65.443 105.293C64.5516 103.651 65.4833 101.613 67.308 101.213L173.146 78.0082C174.611 77.687 176.069 78.5744 176.458 80.0228L183.19 105.15C183.605 106.699 182.64 108.28 181.072 108.619L81.2439 130.165C80.0259 130.428 78.7805 129.856 78.186 128.761L65.443 105.293Z" fill="#A3A2FE"/>
</g>
<g filter="url(#filter2_di)">
<path d="M35.9069 84.5456C35.0155 82.904 35.9471 80.8659 37.7719 80.4658L143.61 57.261C145.075 56.9398 146.533 57.8271 146.921 59.2756L153.654 84.4023C154.069 85.9516 153.104 87.533 151.536 87.8714L51.7077 109.418C50.4898 109.681 49.2444 109.109 48.6498 108.014L35.9069 84.5456Z" fill="#C4C5FF"/>
</g>
<g filter="url(#filter3_di)">
<path d="M281.978 119.673C282.87 118.032 281.938 115.993 280.113 115.593L174.275 92.3885C172.81 92.0674 171.352 92.9547 170.964 94.4031L164.231 119.53C163.816 121.079 164.782 122.661 166.349 122.999L266.178 144.546C267.395 144.808 268.641 144.237 269.235 143.142L281.978 119.673Z" fill="#8B80E8"/>
</g>
<g filter="url(#filter4_di)">
<path d="M309.809 105.293C310.701 103.651 309.769 101.613 307.944 101.213L202.106 78.008C200.641 77.6869 199.183 78.5742 198.795 80.0227L192.062 105.149C191.647 106.699 192.613 108.28 194.18 108.618L294.009 130.165C295.227 130.428 296.472 129.856 297.066 128.761L309.809 105.293Z" fill="#A3A2FE"/>
</g>
<g filter="url(#filter5_di)">
<path d="M339.346 84.5455C340.237 82.9038 339.305 80.8658 337.481 80.4657L231.642 57.2608C230.177 56.9397 228.719 57.827 228.331 59.2755L221.598 84.4022C221.183 85.9515 222.149 87.5329 223.717 87.8712L323.545 109.418C324.763 109.681 326.008 109.109 326.603 108.014L339.346 84.5455Z" fill="#C4C5FF"/>
</g>
<g filter="url(#filter6_d)">
<mask id="mask0" style="mask-type:alpha" maskUnits="userSpaceOnUse" x="149" y="12" width="79" height="78">
<path d="M186.632 12.9841C187.727 11.8883 189.504 11.8883 190.6 12.9841L208.616 31L226.632 49.0159C227.727 50.1117 227.727 51.8883 226.632 52.9841L208.616 71L190.6 89.0159C189.504 90.1117 187.727 90.1117 186.632 89.0159L168.616 71L150.6 52.9841C149.504 51.8883 149.504 50.1117 150.6 49.0159L168.616 31L186.632 12.9841Z" fill="#C4C4C4"/>
</mask>
<g mask="url(#mask0)">
<path d="M188.615 91V11L148.615 51L188.615 91Z" fill="#7EF7FF"/>
<path d="M188.615 11V91L228.615 51L188.615 11Z" fill="#38C9D1"/>
<path d="M268.615 91L228.615 51L188.615 91H268.615Z" fill="#7EF7FF"/>
<path d="M108.615 91H188.615L148.615 51L108.615 91Z" fill="#7EF7FF"/>
</g>
</g>
<g filter="url(#filter7_d)">
<mask id="mask1" style="mask-type:alpha" maskUnits="userSpaceOnUse" x="189" y="52" width="79" height="78">
<path d="M266.705 88.9422C267.801 90.038 267.801 91.8147 266.705 92.9105L248.689 110.926L230.674 128.942C229.578 130.038 227.801 130.038 226.705 128.942L208.689 110.926L190.674 92.9105C189.578 91.8147 189.578 90.038 190.674 88.9422L208.689 70.9263L226.705 52.9105C227.801 51.8147 229.578 51.8147 230.674 52.9105L248.689 70.9263L266.705 88.9422Z" fill="#C4C4C4"/>
</mask>
<g mask="url(#mask1)">
<path d="M188.689 90.9259L268.689 90.9259L228.689 50.9259L188.689 90.9259Z" fill="#7EF7FF"/>
<path d="M268.689 90.9259L188.689 90.9259L228.689 130.926L268.689 90.9259Z" fill="#38C9D1"/>
<path d="M188.689 170.926L228.689 130.926L188.689 90.9259L188.689 170.926Z" fill="#7EF7FF"/>
<path d="M188.689 10.9259L188.689 90.9259L228.689 50.9259L188.689 10.9259Z" fill="#7EF7FF"/>
</g>
</g>
<g filter="url(#filter8_d)">
<mask id="mask2" style="mask-type:alpha" maskUnits="userSpaceOnUse" x="149" y="92" width="79" height="78">
<path d="M190.747 169.016C189.651 170.112 187.875 170.112 186.779 169.016L168.763 151L150.747 132.984C149.652 131.888 149.652 130.112 150.747 129.016L168.763 111L186.779 92.9841C187.875 91.8883 189.652 91.8883 190.747 92.9841L208.763 111L226.779 129.016C227.875 130.112 227.875 131.888 226.779 132.984L208.763 151L190.747 169.016Z" fill="#C4C4C4"/>
</mask>
<g mask="url(#mask2)">
<path d="M188.764 91L188.764 171L228.764 131L188.764 91Z" fill="#7EF7FF"/>
<path d="M188.764 171L188.764 91L148.764 131L188.764 171Z" fill="#38C9D1"/>
<path d="M108.764 91L148.764 131L188.764 91L108.764 91Z" fill="#7EF7FF"/>
<path d="M268.764 91L188.764 91L228.764 131L268.764 91Z" fill="#7EF7FF"/>
</g>
</g>
<g filter="url(#filter9_d)">
<mask id="mask3" style="mask-type:alpha" maskUnits="userSpaceOnUse" x="109" y="52" width="79" height="78">
<path d="M110.674 93.0578C109.578 91.962 109.578 90.1853 110.674 89.0895L128.689 71.0737L146.705 53.0578C147.801 51.962 149.578 51.962 150.674 53.0578L168.689 71.0737L186.705 89.0895C187.801 90.1853 187.801 91.962 186.705 93.0578L168.689 111.074L150.674 129.09C149.578 130.185 147.801 130.185 146.705 129.09L128.689 111.074L110.674 93.0578Z" fill="#C4C4C4"/>
</mask>
<g mask="url(#mask3)">
<path d="M188.689 91.0741L108.689 91.0741L148.689 131.074L188.689 91.0741Z" fill="#7EF7FF"/>
<path d="M108.689 91.0741L188.689 91.0741L148.689 51.0741L108.689 91.0741Z" fill="#38C9D1"/>
<path d="M188.689 11.0741L148.689 51.0741L188.689 91.0741L188.689 11.0741Z" fill="#7EF7FF"/>
<path d="M188.689 171.074L188.689 91.0741L148.689 131.074L188.689 171.074Z" fill="#7EF7FF"/>
</g>
</g>
<g filter="url(#filter10_d)">
<circle cx="188.69" cy="91" r="67.3431" fill="url(#paint0_linear)"/>
<circle cx="188.69" cy="90.9998" r="64.5372" fill="url(#paint1_linear)"/>
<circle cx="188.689" cy="91.0002" r="54.7163" fill="url(#paint2_linear)"/>
<g filter="url(#filter11_i)">
<circle cx="188.69" cy="91.0007" r="51.9103" fill="url(#paint3_radial)"/>
<circle cx="188.69" cy="91.0007" r="51.9103" fill="url(#paint4_radial)"/>
</g>
<path d="M188.689 56.3942L212.063 91.0003L188.689 125.606L165.316 91.0003L188.689 56.3942Z" fill="#0C24DA" fill-opacity="0.29"/>
<path d="M188.689 62.1624L169.44 91.0008H180.439L188.689 78.0235V62.1624Z" fill="#D3FCFF"/>
<path d="M207.937 91.0008L188.689 62.1624V78.0235L196.938 91.0008H207.937Z" fill="#7EF7FF"/>
<path d="M188.689 119.839L207.937 91.0008H196.938L188.689 103.978V119.839Z" fill="#38C9D1"/>
<path d="M169.44 91.0008L188.689 119.839V103.978L180.439 91.0008H169.44Z" fill="#7EF7FF"/>
<path d="M196.938 91.0008L188.689 78.0235L180.439 91.0008L188.689 103.978L196.938 91.0008Z" fill="white"/>
</g>
<ellipse cx="187.626" cy="171" rx="200.626" ry="24.5522" fill="url(#paint5_radial)"/>
<ellipse cx="187.626" cy="171" rx="129.074" ry="4.91044" fill="url(#paint6_radial)"/>
<g filter="url(#filter12_d)">
<path d="M118.744 178.72H123.976C125 178.72 125.72 178.512 126.136 178.096C126.584 177.648 126.808 176.912 126.808 175.888V161.248C126.808 160.224 126.584 159.504 126.136 159.088C125.72 158.64 125 158.416 123.976 158.416H118.744C118.392 158.416 118.216 158.592 118.216 158.944V178.192C118.216 178.544 118.392 178.72 118.744 178.72ZM112.12 182.992V154.144C112.12 153.472 112.456 153.136 113.128 153.136H124.984C127.48 153.136 129.416 153.824 130.792 155.2C132.2 156.544 132.904 158.464 132.904 160.96V176.176C132.904 178.672 132.2 180.608 130.792 181.984C129.416 183.328 127.48 184 124.984 184H113.128C112.456 184 112.12 183.664 112.12 182.992ZM147.051 178.72H150.459C151.483 178.72 152.203 178.512 152.619 178.096C153.067 177.648 153.291 176.912 153.291 175.888V161.248C153.291 160.224 153.067 159.504 152.619 159.088C152.203 158.64 151.483 158.416 150.459 158.416H147.051C146.027 158.416 145.307 158.64 144.891 159.088C144.475 159.504 144.267 160.224 144.267 161.248V175.888C144.267 176.912 144.475 177.648 144.891 178.096C145.307 178.512 146.027 178.72 147.051 178.72ZM151.467 184H146.091C143.563 184 141.611 183.328 140.235 181.984C138.859 180.64 138.171 178.704 138.171 176.176V160.96C138.171 158.432 138.859 156.496 140.235 155.152C141.611 153.808 143.563 153.136 146.091 153.136H151.467C153.995 153.136 155.947 153.808 157.323 155.152C158.699 156.496 159.387 158.432 159.387 160.96V176.176C159.387 178.704 158.699 180.64 157.323 181.984C155.947 183.328 153.995 184 151.467 184ZM168.352 184H163.744C163.168 184 162.976 183.664 163.168 182.992L170.752 154.144C170.976 153.472 171.456 153.136 172.192 153.136H178.576C179.376 153.136 179.856 153.472 180.016 154.144L187.6 182.992C187.792 183.664 187.6 184 187.024 184H182.416C182.064 184 181.824 183.936 181.696 183.808C181.568 183.648 181.472 183.376 181.408 182.992L180.064 177.712H170.704L169.36 182.992C169.296 183.376 169.184 183.648 169.024 183.808C168.896 183.936 168.672 184 168.352 184ZM175.312 158.944L171.856 172.816H178.96L175.504 158.944H175.312ZM198.478 178.72H203.71C204.734 178.72 205.454 178.512 205.87 178.096C206.318 177.648 206.542 176.912 206.542 175.888V161.248C206.542 160.224 206.318 159.504 205.87 159.088C205.454 158.64 204.734 158.416 203.71 158.416H198.478C198.126 158.416 197.95 158.592 197.95 158.944V178.192C197.95 178.544 198.126 178.72 198.478 178.72ZM191.854 182.992V154.144C191.854 153.472 192.19 153.136 192.862 153.136H204.718C207.214 153.136 209.15 153.824 210.526 155.2C211.934 156.544 212.638 158.464 212.638 160.96V176.176C212.638 178.672 211.934 180.608 210.526 181.984C209.15 183.328 207.214 184 204.718 184H192.862C192.19 184 191.854 183.664 191.854 182.992ZM226.786 178.72H230.194C231.218 178.72 231.938 178.512 232.354 178.096C232.802 177.648 233.026 176.912 233.026 175.888V161.248C233.026 160.224 232.802 159.504 232.354 159.088C231.938 158.64 231.218 158.416 230.194 158.416H226.786C225.762 158.416 225.042 158.64 224.626 159.088C224.21 159.504 224.002 160.224 224.002 161.248V175.888C224.002 176.912 224.21 177.648 224.626 178.096C225.042 178.512 225.762 178.72 226.786 178.72ZM231.202 184H225.826C223.298 184 221.346 183.328 219.97 181.984C218.594 180.64 217.906 178.704 217.906 176.176V160.96C217.906 158.432 218.594 156.496 219.97 155.152C221.346 153.808 223.298 153.136 225.826 153.136H231.202C233.73 153.136 235.682 153.808 237.058 155.152C238.434 156.496 239.122 158.432 239.122 160.96V176.176C239.122 178.704 238.434 180.64 237.058 181.984C235.682 183.328 233.73 184 231.202 184ZM249.958 184H245.878C245.206 184 244.87 183.664 244.87 182.992V154.144C244.87 153.472 245.206 153.136 245.878 153.136H257.302C259.798 153.136 261.75 153.824 263.158 155.2C264.566 156.576 265.27 158.512 265.27 161.008V164.752C265.27 168.368 263.846 170.768 260.998 171.952V172.144L266.134 182.848C266.422 183.616 266.15 184 265.318 184H261.43C260.854 184 260.438 183.936 260.182 183.808C259.926 183.68 259.718 183.408 259.558 182.992L254.758 172.624H251.542C251.158 172.624 250.966 172.8 250.966 173.152V182.992C250.966 183.664 250.63 184 249.958 184ZM251.494 167.728H256.198C257.222 167.728 257.974 167.52 258.454 167.104C258.934 166.656 259.174 165.952 259.174 164.992V161.248C259.174 160.256 258.934 159.536 258.454 159.088C257.974 158.64 257.222 158.416 256.198 158.416H251.494C251.142 158.416 250.966 158.592 250.966 158.944V167.2C250.966 167.552 251.142 167.728 251.494 167.728Z" fill="white"/>
<path d="M126.136 178.096L127.128 179.088L127.128 179.088L126.136 178.096ZM126.136 159.088L125.108 160.043C125.131 160.068 125.156 160.093 125.181 160.116L126.136 159.088ZM130.792 155.2L129.8 156.192C129.808 156.2 129.815 156.207 129.823 156.215L130.792 155.2ZM130.792 181.984L131.772 182.988L131.773 182.987L130.792 181.984ZM118.744 180.123H123.976V177.317H118.744V180.123ZM123.976 180.123C125.117 180.123 126.311 179.905 127.128 179.088L125.144 177.104C125.129 177.119 124.883 177.317 123.976 177.317V180.123ZM127.128 179.088C127.962 178.254 128.211 177.064 128.211 175.888H125.405C125.405 176.76 125.206 177.042 125.144 177.104L127.128 179.088ZM128.211 175.888V161.248H125.405V175.888H128.211ZM128.211 161.248C128.211 160.085 127.968 158.874 127.091 158.06L125.181 160.116C125.2 160.134 125.405 160.363 125.405 161.248H128.211ZM127.164 158.133C126.35 157.256 125.139 157.013 123.976 157.013V159.819C124.861 159.819 125.09 160.024 125.108 160.043L127.164 158.133ZM123.976 157.013H118.744V159.819H123.976V157.013ZM118.744 157.013C118.352 157.013 117.8 157.112 117.356 157.556C116.912 158 116.813 158.552 116.813 158.944H119.619C119.619 158.984 119.608 159.272 119.34 159.54C119.072 159.808 118.784 159.819 118.744 159.819V157.013ZM116.813 158.944V178.192H119.619V158.944H116.813ZM116.813 178.192C116.813 178.584 116.912 179.136 117.356 179.58C117.8 180.024 118.352 180.123 118.744 180.123V177.317C118.784 177.317 119.072 177.328 119.34 177.596C119.608 177.864 119.619 178.152 119.619 178.192H116.813ZM113.523 182.992V154.144H110.717V182.992H113.523ZM113.523 154.144C113.523 154.024 113.552 154.192 113.364 154.38C113.176 154.568 113.008 154.539 113.128 154.539V151.733C112.576 151.733 111.904 151.872 111.38 152.396C110.856 152.92 110.717 153.592 110.717 154.144H113.523ZM113.128 154.539H124.984V151.733H113.128V154.539ZM124.984 154.539C127.218 154.539 128.756 155.148 129.8 156.192L131.784 154.208C130.076 152.5 127.742 151.733 124.984 151.733V154.539ZM129.823 156.215C130.881 157.224 131.501 158.733 131.501 160.96H134.307C134.307 158.195 133.519 155.864 131.761 154.185L129.823 156.215ZM131.501 160.96V176.176H134.307V160.96H131.501ZM131.501 176.176C131.501 178.401 130.881 179.935 129.811 180.981L131.773 182.987C133.519 181.281 134.307 178.943 134.307 176.176H131.501ZM129.812 180.98C128.769 181.999 127.227 182.597 124.984 182.597V185.403C127.733 185.403 130.063 184.657 131.772 182.988L129.812 180.98ZM124.984 182.597H113.128V185.403H124.984V182.597ZM113.128 182.597C113.008 182.597 113.176 182.568 113.364 182.756C113.552 182.944 113.523 183.112 113.523 182.992H110.717C110.717 183.544 110.856 184.216 111.38 184.74C111.904 185.264 112.576 185.403 113.128 185.403V182.597ZM152.619 178.096L151.627 177.104L151.627 177.104L152.619 178.096ZM152.619 159.088L151.591 160.043C151.615 160.068 151.639 160.093 151.665 160.116L152.619 159.088ZM144.891 159.088L145.883 160.08C145.896 160.068 145.908 160.055 145.919 160.043L144.891 159.088ZM144.891 178.096L143.863 179.051C143.875 179.063 143.887 179.076 143.899 179.088L144.891 178.096ZM140.235 181.984L141.216 180.98L141.216 180.98L140.235 181.984ZM140.235 155.152L141.216 156.156L141.216 156.156L140.235 155.152ZM157.323 155.152L158.304 154.148L158.304 154.148L157.323 155.152ZM157.323 181.984L158.304 182.988L158.304 182.988L157.323 181.984ZM147.051 180.123H150.459V177.317H147.051V180.123ZM150.459 180.123C151.6 180.123 152.794 179.905 153.611 179.088L151.627 177.104C151.612 177.119 151.367 177.317 150.459 177.317V180.123ZM153.611 179.088C154.445 178.254 154.694 177.064 154.694 175.888H151.888C151.888 176.76 151.689 177.042 151.627 177.104L153.611 179.088ZM154.694 175.888V161.248H151.888V175.888H154.694ZM154.694 161.248C154.694 160.085 154.451 158.874 153.574 158.06L151.665 160.116C151.684 160.134 151.888 160.363 151.888 161.248H154.694ZM153.647 158.133C152.833 157.256 151.622 157.013 150.459 157.013V159.819C151.344 159.819 151.573 160.024 151.591 160.043L153.647 158.133ZM150.459 157.013H147.051V159.819H150.459V157.013ZM147.051 157.013C145.888 157.013 144.677 157.256 143.863 158.133L145.919 160.043C145.937 160.024 146.166 159.819 147.051 159.819V157.013ZM143.899 158.096C143.082 158.913 142.864 160.107 142.864 161.248H145.67C145.67 160.341 145.868 160.095 145.883 160.08L143.899 158.096ZM142.864 161.248V175.888H145.67V161.248H142.864ZM142.864 175.888C142.864 177.043 143.088 178.216 143.863 179.051L145.919 177.141C145.862 177.08 145.67 176.781 145.67 175.888H142.864ZM143.899 179.088C144.716 179.905 145.911 180.123 147.051 180.123V177.317C146.144 177.317 145.898 177.119 145.883 177.104L143.899 179.088ZM151.467 182.597H146.091V185.403H151.467V182.597ZM146.091 182.597C143.81 182.597 142.255 181.996 141.216 180.98L139.255 182.988C140.967 184.66 143.316 185.403 146.091 185.403V182.597ZM141.216 180.98C140.187 179.976 139.574 178.45 139.574 176.176H136.768C136.768 178.958 137.531 181.304 139.255 182.988L141.216 180.98ZM139.574 176.176V160.96H136.768V176.176H139.574ZM139.574 160.96C139.574 158.686 140.187 157.16 141.216 156.156L139.255 154.148C137.531 155.832 136.768 158.178 136.768 160.96H139.574ZM141.216 156.156C142.255 155.14 143.81 154.539 146.091 154.539V151.733C143.316 151.733 140.967 152.476 139.255 154.148L141.216 156.156ZM146.091 154.539H151.467V151.733H146.091V154.539ZM151.467 154.539C153.748 154.539 155.303 155.14 156.343 156.156L158.304 154.148C156.591 152.476 154.242 151.733 151.467 151.733V154.539ZM156.343 156.156C157.371 157.16 157.984 158.686 157.984 160.96H160.79C160.79 158.178 160.027 155.832 158.304 154.148L156.343 156.156ZM157.984 160.96V176.176H160.79V160.96H157.984ZM157.984 176.176C157.984 178.45 157.371 179.976 156.343 180.98L158.304 182.988C160.027 181.304 160.79 178.958 160.79 176.176H157.984ZM156.343 180.98C155.303 181.996 153.748 182.597 151.467 182.597V185.403C154.242 185.403 156.591 184.66 158.304 182.988L156.343 180.98ZM163.168 182.992L164.517 183.377C164.519 183.368 164.522 183.358 164.525 183.349L163.168 182.992ZM170.752 154.144L169.421 153.7C169.411 153.729 169.402 153.758 169.395 153.787L170.752 154.144ZM180.016 154.144L178.651 154.469C178.653 154.48 178.656 154.49 178.659 154.501L180.016 154.144ZM187.6 182.992L186.243 183.349C186.245 183.358 186.248 183.368 186.251 183.377L187.6 182.992ZM181.696 183.808L180.6 184.684C180.632 184.725 180.667 184.763 180.704 184.8L181.696 183.808ZM181.408 182.992L182.792 182.761C182.785 182.723 182.777 182.684 182.767 182.646L181.408 182.992ZM180.064 177.712L181.423 177.366C181.265 176.744 180.705 176.309 180.064 176.309V177.712ZM170.704 177.712V176.309C170.062 176.309 169.502 176.744 169.344 177.366L170.704 177.712ZM169.36 182.992L168 182.646C167.99 182.684 167.982 182.723 167.976 182.761L169.36 182.992ZM169.024 183.808L170.016 184.8L170.016 184.8L169.024 183.808ZM175.312 158.944V157.541C174.667 157.541 174.106 157.98 173.95 158.605L175.312 158.944ZM171.856 172.816L170.494 172.477C170.39 172.896 170.484 173.34 170.75 173.68C171.016 174.02 171.424 174.219 171.856 174.219V172.816ZM178.96 172.816V174.219C179.391 174.219 179.799 174.02 180.065 173.68C180.331 173.34 180.425 172.896 180.321 172.477L178.96 172.816ZM175.504 158.944L176.865 158.605C176.709 157.98 176.148 157.541 175.504 157.541V158.944ZM168.352 182.597H163.744V185.403H168.352V182.597ZM163.744 182.597C163.725 182.597 163.811 182.593 163.946 182.652C164.102 182.72 164.272 182.852 164.386 183.052C164.49 183.235 164.499 183.387 164.499 183.433C164.499 183.477 164.492 183.465 164.517 183.377L161.819 182.607C161.695 183.038 161.562 183.766 161.949 184.444C162.405 185.241 163.221 185.403 163.744 185.403V182.597ZM164.525 183.349L172.109 154.501L169.395 153.787L161.811 182.635L164.525 183.349ZM172.083 154.588C172.102 154.529 172.118 154.506 172.118 154.506C172.118 154.506 172.115 154.51 172.108 154.517C172.102 154.524 172.094 154.531 172.084 154.537C172.063 154.552 172.052 154.554 172.061 154.551C172.073 154.548 172.113 154.539 172.192 154.539V151.733C171.61 151.733 171.005 151.868 170.475 152.239C169.94 152.613 169.607 153.14 169.421 153.7L172.083 154.588ZM172.192 154.539H178.576V151.733H172.192V154.539ZM178.576 154.539C178.68 154.539 178.737 154.55 178.759 154.556C178.779 154.561 178.763 154.56 178.731 154.537C178.716 154.526 178.7 154.513 178.685 154.497C178.67 154.482 178.659 154.467 178.651 154.455C178.636 154.431 178.641 154.429 178.651 154.469L181.38 153.819C181.236 153.212 180.911 152.638 180.34 152.239C179.792 151.855 179.161 151.733 178.576 151.733V154.539ZM178.659 154.501L186.243 183.349L188.957 182.635L181.373 153.787L178.659 154.501ZM186.251 183.377C186.276 183.465 186.269 183.477 186.269 183.433C186.269 183.387 186.277 183.235 186.381 183.052C186.496 182.852 186.665 182.72 186.821 182.652C186.956 182.593 187.042 182.597 187.024 182.597V185.403C187.546 185.403 188.362 185.241 188.818 184.444C189.205 183.766 189.072 183.038 188.949 182.607L186.251 183.377ZM187.024 182.597H182.416V185.403H187.024V182.597ZM182.416 182.597C182.315 182.597 182.298 182.587 182.333 182.596C182.367 182.605 182.524 182.652 182.688 182.816L180.704 184.8C181.253 185.35 182.001 185.403 182.416 185.403V182.597ZM182.791 182.932C182.826 182.975 182.844 183.008 182.851 183.021C182.858 183.034 182.857 183.035 182.851 183.017C182.837 182.979 182.814 182.899 182.792 182.761L180.024 183.223C180.098 183.666 180.24 184.235 180.6 184.684L182.791 182.932ZM182.767 182.646L181.423 177.366L178.704 178.058L180.048 183.338L182.767 182.646ZM180.064 176.309H170.704V179.115H180.064V176.309ZM169.344 177.366L168 182.646L170.719 183.338L172.063 178.058L169.344 177.366ZM167.976 182.761C167.966 182.819 167.956 182.863 167.948 182.895C167.939 182.928 167.932 182.945 167.93 182.95C167.928 182.955 167.933 182.943 167.947 182.919C167.962 182.896 167.989 182.859 168.032 182.816L170.016 184.8C170.484 184.331 170.662 183.71 170.744 183.223L167.976 182.761ZM168.032 182.816C168.178 182.67 168.321 182.618 168.374 182.603C168.424 182.589 168.426 182.597 168.352 182.597V185.403C168.781 185.403 169.484 185.332 170.016 184.8L168.032 182.816ZM173.95 158.605L170.494 172.477L173.217 173.155L176.673 159.283L173.95 158.605ZM171.856 174.219H178.96V171.413H171.856V174.219ZM180.321 172.477L176.865 158.605L174.142 159.283L177.598 173.155L180.321 172.477ZM175.504 157.541H175.312V160.347H175.504V157.541ZM205.87 178.096L206.862 179.088L206.862 179.088L205.87 178.096ZM205.87 159.088L204.842 160.043C204.866 160.068 204.89 160.093 204.916 160.116L205.87 159.088ZM210.526 155.2L209.534 156.192C209.542 156.2 209.55 156.207 209.558 156.215L210.526 155.2ZM210.526 181.984L211.507 182.988L211.507 182.987L210.526 181.984ZM198.478 180.123H203.71V177.317H198.478V180.123ZM203.71 180.123C204.851 180.123 206.046 179.905 206.862 179.088L204.878 177.104C204.863 177.119 204.618 177.317 203.71 177.317V180.123ZM206.862 179.088C207.696 178.254 207.945 177.064 207.945 175.888H205.139C205.139 176.76 204.941 177.042 204.878 177.104L206.862 179.088ZM207.945 175.888V161.248H205.139V175.888H207.945ZM207.945 161.248C207.945 160.085 207.702 158.874 206.825 158.06L204.916 160.116C204.935 160.134 205.139 160.363 205.139 161.248H207.945ZM206.898 158.133C206.084 157.256 204.873 157.013 203.71 157.013V159.819C204.596 159.819 204.825 160.024 204.842 160.043L206.898 158.133ZM203.71 157.013H198.478V159.819H203.71V157.013ZM198.478 157.013C198.086 157.013 197.534 157.112 197.09 157.556C196.646 158 196.547 158.552 196.547 158.944H199.353C199.353 158.984 199.342 159.272 199.074 159.54C198.807 159.808 198.519 159.819 198.478 159.819V157.013ZM196.547 158.944V178.192H199.353V158.944H196.547ZM196.547 178.192C196.547 178.584 196.646 179.136 197.09 179.58C197.534 180.024 198.086 180.123 198.478 180.123V177.317C198.519 177.317 198.807 177.328 199.074 177.596C199.342 177.864 199.353 178.152 199.353 178.192H196.547ZM193.257 182.992V154.144H190.451V182.992H193.257ZM193.257 154.144C193.257 154.024 193.286 154.192 193.098 154.38C192.911 154.568 192.743 154.539 192.862 154.539V151.733C192.31 151.733 191.638 151.872 191.114 152.396C190.59 152.92 190.451 153.592 190.451 154.144H193.257ZM192.862 154.539H204.718V151.733H192.862V154.539ZM204.718 154.539C206.952 154.539 208.49 155.148 209.534 156.192L211.518 154.208C209.811 152.5 207.476 151.733 204.718 151.733V154.539ZM209.558 156.215C210.615 157.224 211.235 158.733 211.235 160.96H214.041C214.041 158.195 213.253 155.864 211.495 154.185L209.558 156.215ZM211.235 160.96V176.176H214.041V160.96H211.235ZM211.235 176.176C211.235 178.401 210.616 179.935 209.546 180.981L211.507 182.987C213.253 181.281 214.041 178.943 214.041 176.176H211.235ZM209.546 180.98C208.503 181.999 206.961 182.597 204.718 182.597V185.403C207.467 185.403 209.797 184.657 211.507 182.988L209.546 180.98ZM204.718 182.597H192.862V185.403H204.718V182.597ZM192.862 182.597C192.743 182.597 192.911 182.568 193.098 182.756C193.286 182.944 193.257 183.112 193.257 182.992H190.451C190.451 183.544 190.59 184.216 191.114 184.74C191.638 185.264 192.31 185.403 192.862 185.403V182.597ZM232.354 178.096L231.362 177.104L231.362 177.104L232.354 178.096ZM232.354 159.088L231.326 160.043C231.349 160.068 231.374 160.093 231.399 160.116L232.354 159.088ZM224.626 159.088L225.618 160.08C225.63 160.068 225.642 160.055 225.654 160.043L224.626 159.088ZM224.626 178.096L223.598 179.051C223.609 179.063 223.621 179.076 223.634 179.088L224.626 178.096ZM219.97 181.984L220.95 180.98L220.95 180.98L219.97 181.984ZM219.97 155.152L220.95 156.156L220.95 156.156L219.97 155.152ZM237.058 155.152L238.038 154.148L238.038 154.148L237.058 155.152ZM237.058 181.984L238.038 182.988L238.038 182.988L237.058 181.984ZM226.786 180.123H230.194V177.317H226.786V180.123ZM230.194 180.123C231.334 180.123 232.529 179.905 233.346 179.088L231.362 177.104C231.346 177.119 231.101 177.317 230.194 177.317V180.123ZM233.346 179.088C234.179 178.254 234.429 177.064 234.429 175.888H231.623C231.623 176.76 231.424 177.042 231.362 177.104L233.346 179.088ZM234.429 175.888V161.248H231.623V175.888H234.429ZM234.429 161.248C234.429 160.085 234.185 158.874 233.308 158.06L231.399 160.116C231.418 160.134 231.623 160.363 231.623 161.248H234.429ZM233.382 158.133C232.567 157.256 231.356 157.013 230.194 157.013V159.819C231.079 159.819 231.308 160.024 231.326 160.043L233.382 158.133ZM230.194 157.013H226.786V159.819H230.194V157.013ZM226.786 157.013C225.623 157.013 224.412 157.256 223.598 158.133L225.654 160.043C225.671 160.024 225.9 159.819 226.786 159.819V157.013ZM223.634 158.096C222.817 158.913 222.599 160.107 222.599 161.248H225.405C225.405 160.341 225.603 160.095 225.618 160.08L223.634 158.096ZM222.599 161.248V175.888H225.405V161.248H222.599ZM222.599 175.888C222.599 177.043 222.823 178.216 223.598 179.051L225.654 177.141C225.597 177.08 225.405 176.781 225.405 175.888H222.599ZM223.634 179.088C224.45 179.905 225.645 180.123 226.786 180.123V177.317C225.878 177.317 225.633 177.119 225.618 177.104L223.634 179.088ZM231.202 182.597H225.826V185.403H231.202V182.597ZM225.826 182.597C223.545 182.597 221.989 181.996 220.95 180.98L218.989 182.988C220.702 184.66 223.05 185.403 225.826 185.403V182.597ZM220.95 180.98C219.922 179.976 219.309 178.45 219.309 176.176H216.503C216.503 178.958 217.266 181.304 218.989 182.988L220.95 180.98ZM219.309 176.176V160.96H216.503V176.176H219.309ZM219.309 160.96C219.309 158.686 219.922 157.16 220.95 156.156L218.989 154.148C217.266 155.832 216.503 158.178 216.503 160.96H219.309ZM220.95 156.156C221.989 155.14 223.545 154.539 225.826 154.539V151.733C223.05 151.733 220.702 152.476 218.989 154.148L220.95 156.156ZM225.826 154.539H231.202V151.733H225.826V154.539ZM231.202 154.539C233.482 154.539 235.038 155.14 236.077 156.156L238.038 154.148C236.325 152.476 233.977 151.733 231.202 151.733V154.539ZM236.077 156.156C237.106 157.16 237.719 158.686 237.719 160.96H240.525C240.525 158.178 239.762 155.832 238.038 154.148L236.077 156.156ZM237.719 160.96V176.176H240.525V160.96H237.719ZM237.719 176.176C237.719 178.45 237.106 179.976 236.077 180.98L238.038 182.988C239.762 181.304 240.525 178.958 240.525 176.176H237.719ZM236.077 180.98C235.038 181.996 233.482 182.597 231.202 182.597V185.403C233.977 185.403 236.325 184.66 238.038 182.988L236.077 180.98ZM260.998 171.952L260.459 170.657C259.936 170.874 259.595 171.385 259.595 171.952H260.998ZM260.998 172.144H259.595C259.595 172.354 259.642 172.562 259.733 172.751L260.998 172.144ZM266.134 182.848L267.448 182.355C267.433 182.317 267.417 182.278 267.399 182.241L266.134 182.848ZM260.182 183.808L259.555 185.063L259.555 185.063L260.182 183.808ZM259.558 182.992L260.867 182.488C260.856 182.459 260.844 182.431 260.831 182.403L259.558 182.992ZM254.758 172.624L256.031 172.035C255.802 171.539 255.305 171.221 254.758 171.221V172.624ZM258.454 167.104L259.373 168.164C259.386 168.153 259.399 168.141 259.411 168.13L258.454 167.104ZM258.454 159.088L259.411 158.062L259.411 158.062L258.454 159.088ZM249.958 182.597H245.878V185.403H249.958V182.597ZM245.878 182.597C245.758 182.597 245.926 182.568 246.114 182.756C246.302 182.944 246.273 183.112 246.273 182.992H243.467C243.467 183.544 243.606 184.216 244.13 184.74C244.654 185.264 245.326 185.403 245.878 185.403V182.597ZM246.273 182.992V154.144H243.467V182.992H246.273ZM246.273 154.144C246.273 154.024 246.302 154.192 246.114 154.38C245.926 154.568 245.758 154.539 245.878 154.539V151.733C245.326 151.733 244.654 151.872 244.13 152.396C243.606 152.92 243.467 153.592 243.467 154.144H246.273ZM245.878 154.539H257.302V151.733H245.878V154.539ZM257.302 154.539C259.534 154.539 261.097 155.147 262.177 156.203L264.139 154.197C262.403 152.501 260.062 151.733 257.302 151.733V154.539ZM262.177 156.203C263.247 157.249 263.867 158.783 263.867 161.008H266.673C266.673 158.241 265.885 155.903 264.139 154.197L262.177 156.203ZM263.867 161.008V164.752H266.673V161.008H263.867ZM263.867 164.752C263.867 166.381 263.546 167.62 262.995 168.548C262.454 169.461 261.635 170.168 260.459 170.657L261.537 173.247C263.209 172.552 264.526 171.467 265.409 169.98C266.282 168.508 266.673 166.739 266.673 164.752H263.867ZM259.595 171.952V172.144H262.401V171.952H259.595ZM259.733 172.751L264.869 183.455L267.399 182.241L262.263 171.537L259.733 172.751ZM264.82 183.341C264.858 183.44 264.843 183.442 264.842 183.371C264.841 183.286 264.862 183.098 265.001 182.901C265.139 182.706 265.306 182.627 265.376 182.603C265.435 182.583 265.43 182.597 265.318 182.597V185.403C265.849 185.403 266.743 185.297 267.291 184.523C267.846 183.739 267.635 182.855 267.448 182.355L264.82 183.341ZM265.318 182.597H261.43V185.403H265.318V182.597ZM261.43 182.597C261.189 182.597 261.016 182.583 260.899 182.565C260.774 182.546 260.761 182.529 260.809 182.553L259.555 185.063C260.119 185.345 260.814 185.403 261.43 185.403V182.597ZM260.809 182.553C260.906 182.602 260.948 182.655 260.948 182.656C260.948 182.656 260.946 182.653 260.942 182.646C260.938 182.639 260.932 182.629 260.924 182.615C260.909 182.587 260.89 182.546 260.867 182.488L258.249 183.496C258.467 184.064 258.851 184.711 259.555 185.063L260.809 182.553ZM260.831 182.403L256.031 172.035L253.485 173.213L258.285 183.581L260.831 182.403ZM254.758 171.221H251.542V174.027H254.758V171.221ZM251.542 171.221C251.163 171.221 250.616 171.305 250.162 171.722C249.685 172.159 249.563 172.727 249.563 173.152H252.369C252.369 173.225 252.343 173.529 252.058 173.79C251.929 173.908 251.797 173.969 251.7 173.999C251.608 174.027 251.549 174.027 251.542 174.027V171.221ZM249.563 173.152V182.992H252.369V173.152H249.563ZM249.563 182.992C249.563 183.112 249.534 182.944 249.722 182.756C249.91 182.568 250.078 182.597 249.958 182.597V185.403C250.51 185.403 251.182 185.264 251.706 184.74C252.23 184.216 252.369 183.544 252.369 182.992H249.563ZM251.494 169.131H256.198V166.325H251.494V169.131ZM256.198 169.131C257.365 169.131 258.522 168.902 259.373 168.164L257.535 166.044C257.426 166.138 257.079 166.325 256.198 166.325V169.131ZM259.411 168.13C260.285 167.314 260.577 166.16 260.577 164.992H257.771C257.771 165.744 257.583 165.998 257.497 166.078L259.411 168.13ZM260.577 164.992V161.248H257.771V164.992H260.577ZM260.577 161.248C260.577 160.065 260.294 158.886 259.411 158.062L257.497 160.114C257.574 160.186 257.771 160.447 257.771 161.248H260.577ZM259.411 158.062C258.559 157.267 257.386 157.013 256.198 157.013V159.819C257.058 159.819 257.389 160.013 257.497 160.114L259.411 158.062ZM256.198 157.013H251.494V159.819H256.198V157.013ZM251.494 157.013C251.102 157.013 250.55 157.112 250.106 157.556C249.662 158 249.563 158.552 249.563 158.944H252.369C252.369 158.984 252.358 159.272 252.09 159.54C251.822 159.808 251.534 159.819 251.494 159.819V157.013ZM249.563 158.944V167.2H252.369V158.944H249.563ZM249.563 167.2C249.563 167.592 249.662 168.144 250.106 168.588C250.55 169.032 251.102 169.131 251.494 169.131V166.325C251.534 166.325 251.822 166.336 252.09 166.604C252.358 166.872 252.369 167.16 252.369 167.2H249.563Z" fill="#5647FF" fill-opacity="0.6"/>
</g>
<defs>
<filter id="filter0_di" x="86.6903" y="85.4806" width="130.669" height="77.4504" filterUnits="userSpaceOnUse" color-interpolation-filters="sRGB">
<feFlood flood-opacity="0" result="BackgroundImageFix"/>
<feColorMatrix in="SourceAlpha" type="matrix" values="0 0 0 0 0 0 0 0 0 0 0 0 0 0 0 0 0 0 127 0" result="hardAlpha"/>
<feOffset dy="5.61193"/>
<feGaussianBlur stdDeviation="2.80596"/>
<feColorMatrix type="matrix" values="0 0 0 0 0 0 0 0 0 0 0 0 0 0 0 0 0 0 0.08 0"/>
<feBlend mode="normal" in2="BackgroundImageFix" result="effect1_dropShadow"/>
<feBlend mode="normal" in="SourceGraphic" in2="effect1_dropShadow" result="shape"/>
<feColorMatrix in="SourceAlpha" type="matrix" values="0 0 0 0 0 0 0 0 0 0 0 0 0 0 0 0 0 0 127 0" result="hardAlpha"/>
<feOffset dx="5.61193" dy="-11.2239"/>
<feGaussianBlur stdDeviation="0.701491"/>
<feComposite in2="hardAlpha" operator="arithmetic" k2="-1" k3="1"/>
<feColorMatrix type="matrix" values="0 0 0 0 0 0 0 0 0 0 0 0 0 0 0 0 0 0 0.11 0"/>
<feBlend mode="overlay" in2="shape" result="effect2_innerShadow"/>
</filter>
<filter id="filter1_di" x="58.859" y="71.1003" width="130.669" height="77.4504" filterUnits="userSpaceOnUse" color-interpolation-filters="sRGB">
<feFlood flood-opacity="0" result="BackgroundImageFix"/>
<feColorMatrix in="SourceAlpha" type="matrix" values="0 0 0 0 0 0 0 0 0 0 0 0 0 0 0 0 0 0 127 0" result="hardAlpha"/>
<feOffset dy="5.61193"/>
<feGaussianBlur stdDeviation="2.80596"/>
<feColorMatrix type="matrix" values="0 0 0 0 0 0 0 0 0 0 0 0 0 0 0 0 0 0 0.08 0"/>
<feBlend mode="normal" in2="BackgroundImageFix" result="effect1_dropShadow"/>
<feBlend mode="normal" in="SourceGraphic" in2="effect1_dropShadow" result="shape"/>
<feColorMatrix in="SourceAlpha" type="matrix" values="0 0 0 0 0 0 0 0 0 0 0 0 0 0 0 0 0 0 127 0" result="hardAlpha"/>
<feOffset dx="5.61193" dy="-11.2239"/>
<feGaussianBlur stdDeviation="0.701491"/>
<feComposite in2="hardAlpha" operator="arithmetic" k2="-1" k3="1"/>
<feColorMatrix type="matrix" values="0 0 0 0 0 0 0 0 0 0 0 0 0 0 0 0 0 0 0.19 0"/>
<feBlend mode="overlay" in2="shape" result="effect2_innerShadow"/>
</filter>
<filter id="filter2_di" x="29.3229" y="50.353" width="130.669" height="77.4504" filterUnits="userSpaceOnUse" color-interpolation-filters="sRGB">
<feFlood flood-opacity="0" result="BackgroundImageFix"/>
<feColorMatrix in="SourceAlpha" type="matrix" values="0 0 0 0 0 0 0 0 0 0 0 0 0 0 0 0 0 0 127 0" result="hardAlpha"/>
<feOffset dy="5.61193"/>
<feGaussianBlur stdDeviation="2.80596"/>
<feColorMatrix type="matrix" values="0 0 0 0 0 0 0 0 0 0 0 0 0 0 0 0 0 0 0.08 0"/>
<feBlend mode="normal" in2="BackgroundImageFix" result="effect1_dropShadow"/>
<feBlend mode="normal" in="SourceGraphic" in2="effect1_dropShadow" result="shape"/>
<feColorMatrix in="SourceAlpha" type="matrix" values="0 0 0 0 0 0 0 0 0 0 0 0 0 0 0 0 0 0 127 0" result="hardAlpha"/>
<feOffset dx="5.61193" dy="-11.2239"/>
<feGaussianBlur stdDeviation="0.701491"/>
<feComposite in2="hardAlpha" operator="arithmetic" k2="-1" k3="1"/>
<feColorMatrix type="matrix" values="0 0 0 0 0 0 0 0 0 0 0 0 0 0 0 0 0 0 0.42 0"/>
<feBlend mode="overlay" in2="shape" result="effect2_innerShadow"/>
</filter>
<filter id="filter3_di" x="157.893" y="85.4806" width="130.669" height="77.4504" filterUnits="userSpaceOnUse" color-interpolation-filters="sRGB">
<feFlood flood-opacity="0" result="BackgroundImageFix"/>
<feColorMatrix in="SourceAlpha" type="matrix" values="0 0 0 0 0 0 0 0 0 0 0 0 0 0 0 0 0 0 127 0" result="hardAlpha"/>
<feOffset dy="5.61193"/>
<feGaussianBlur stdDeviation="2.80596"/>
<feColorMatrix type="matrix" values="0 0 0 0 0 0 0 0 0 0 0 0 0 0 0 0 0 0 0.08 0"/>
<feBlend mode="normal" in2="BackgroundImageFix" result="effect1_dropShadow"/>
<feBlend mode="normal" in="SourceGraphic" in2="effect1_dropShadow" result="shape"/>
<feColorMatrix in="SourceAlpha" type="matrix" values="0 0 0 0 0 0 0 0 0 0 0 0 0 0 0 0 0 0 127 0" result="hardAlpha"/>
<feOffset dx="-5.61193" dy="-11.2239"/>
<feGaussianBlur stdDeviation="0.701491"/>
<feComposite in2="hardAlpha" operator="arithmetic" k2="-1" k3="1"/>
<feColorMatrix type="matrix" values="0 0 0 0 0 0 0 0 0 0 0 0 0 0 0 0 0 0 0.11 0"/>
<feBlend mode="overlay" in2="shape" result="effect2_innerShadow"/>
</filter>
<filter id="filter4_di" x="185.724" y="71.1001" width="130.669" height="77.4504" filterUnits="userSpaceOnUse" color-interpolation-filters="sRGB">
<feFlood flood-opacity="0" result="BackgroundImageFix"/>
<feColorMatrix in="SourceAlpha" type="matrix" values="0 0 0 0 0 0 0 0 0 0 0 0 0 0 0 0 0 0 127 0" result="hardAlpha"/>
<feOffset dy="5.61193"/>
<feGaussianBlur stdDeviation="2.80596"/>
<feColorMatrix type="matrix" values="0 0 0 0 0 0 0 0 0 0 0 0 0 0 0 0 0 0 0.08 0"/>
<feBlend mode="normal" in2="BackgroundImageFix" result="effect1_dropShadow"/>
<feBlend mode="normal" in="SourceGraphic" in2="effect1_dropShadow" result="shape"/>
<feColorMatrix in="SourceAlpha" type="matrix" values="0 0 0 0 0 0 0 0 0 0 0 0 0 0 0 0 0 0 127 0" result="hardAlpha"/>
<feOffset dx="-5.61193" dy="-11.2239"/>
<feGaussianBlur stdDeviation="0.701491"/>
<feComposite in2="hardAlpha" operator="arithmetic" k2="-1" k3="1"/>
<feColorMatrix type="matrix" values="0 0 0 0 0 0 0 0 0 0 0 0 0 0 0 0 0 0 0.19 0"/>
<feBlend mode="overlay" in2="shape" result="effect2_innerShadow"/>
</filter>
<filter id="filter5_di" x="215.26" y="50.3529" width="130.669" height="77.4504" filterUnits="userSpaceOnUse" color-interpolation-filters="sRGB">
<feFlood flood-opacity="0" result="BackgroundImageFix"/>
<feColorMatrix in="SourceAlpha" type="matrix" values="0 0 0 0 0 0 0 0 0 0 0 0 0 0 0 0 0 0 127 0" result="hardAlpha"/>
<feOffset dy="5.61193"/>
<feGaussianBlur stdDeviation="2.80596"/>
<feColorMatrix type="matrix" values="0 0 0 0 0 0 0 0 0 0 0 0 0 0 0 0 0 0 0.08 0"/>
<feBlend mode="normal" in2="BackgroundImageFix" result="effect1_dropShadow"/>
<feBlend mode="normal" in="SourceGraphic" in2="effect1_dropShadow" result="shape"/>
<feColorMatrix in="SourceAlpha" type="matrix" values="0 0 0 0 0 0 0 0 0 0 0 0 0 0 0 0 0 0 127 0" result="hardAlpha"/>
<feOffset dx="-5.61193" dy="-11.2239"/>
<feGaussianBlur stdDeviation="0.701491"/>
<feComposite in2="hardAlpha" operator="arithmetic" k2="-1" k3="1"/>
<feColorMatrix type="matrix" values="0 0 0 0 0 0 0 0 0 0 0 0 0 0 0 0 0 0 0.42 0"/>
<feBlend mode="overlay" in2="shape" result="effect2_innerShadow"/>
</filter>
<filter id="filter6_d" x="138.554" y="0.938412" width="100.123" height="100.123" filterUnits="userSpaceOnUse" color-interpolation-filters="sRGB">
<feFlood flood-opacity="0" result="BackgroundImageFix"/>
<feColorMatrix in="SourceAlpha" type="matrix" values="0 0 0 0 0 0 0 0 0 0 0 0 0 0 0 0 0 0 127 0" result="hardAlpha"/>
<feOffset/>
<feGaussianBlur stdDeviation="5.61193"/>
<feColorMatrix type="matrix" values="0 0 0 0 0 0 0 0 0 0 0 0 0 0 0 0 0 0 0.2 0"/>
<feBlend mode="normal" in2="BackgroundImageFix" result="effect1_dropShadow"/>
<feBlend mode="normal" in="SourceGraphic" in2="effect1_dropShadow" result="shape"/>
</filter>
<filter id="filter7_d" x="178.628" y="40.8648" width="100.123" height="100.123" filterUnits="userSpaceOnUse" color-interpolation-filters="sRGB">
<feFlood flood-opacity="0" result="BackgroundImageFix"/>
<feColorMatrix in="SourceAlpha" type="matrix" values="0 0 0 0 0 0 0 0 0 0 0 0 0 0 0 0 0 0 127 0" result="hardAlpha"/>
<feOffset/>
<feGaussianBlur stdDeviation="5.61193"/>
<feColorMatrix type="matrix" values="0 0 0 0 0 0 0 0 0 0 0 0 0 0 0 0 0 0 0.2 0"/>
<feBlend mode="normal" in2="BackgroundImageFix" result="effect1_dropShadow"/>
<feBlend mode="normal" in="SourceGraphic" in2="effect1_dropShadow" result="shape"/>
</filter>
<filter id="filter8_d" x="138.702" y="80.9384" width="100.123" height="100.123" filterUnits="userSpaceOnUse" color-interpolation-filters="sRGB">
<feFlood flood-opacity="0" result="BackgroundImageFix"/>
<feColorMatrix in="SourceAlpha" type="matrix" values="0 0 0 0 0 0 0 0 0 0 0 0 0 0 0 0 0 0 127 0" result="hardAlpha"/>
<feOffset/>
<feGaussianBlur stdDeviation="5.61193"/>
<feColorMatrix type="matrix" values="0 0 0 0 0 0 0 0 0 0 0 0 0 0 0 0 0 0 0.2 0"/>
<feBlend mode="normal" in2="BackgroundImageFix" result="effect1_dropShadow"/>
<feBlend mode="normal" in="SourceGraphic" in2="effect1_dropShadow" result="shape"/>
</filter>
<filter id="filter9_d" x="98.628" y="41.0121" width="100.123" height="100.123" filterUnits="userSpaceOnUse" color-interpolation-filters="sRGB">
<feFlood flood-opacity="0" result="BackgroundImageFix"/>
<feColorMatrix in="SourceAlpha" type="matrix" values="0 0 0 0 0 0 0 0 0 0 0 0 0 0 0 0 0 0 127 0" result="hardAlpha"/>
<feOffset/>
<feGaussianBlur stdDeviation="5.61193"/>
<feColorMatrix type="matrix" values="0 0 0 0 0 0 0 0 0 0 0 0 0 0 0 0 0 0 0.2 0"/>
<feBlend mode="normal" in2="BackgroundImageFix" result="effect1_dropShadow"/>
<feBlend mode="normal" in="SourceGraphic" in2="effect1_dropShadow" result="shape"/>
</filter>
<filter id="filter10_d" x="105.346" y="7.65687" width="166.686" height="166.686" filterUnits="userSpaceOnUse" color-interpolation-filters="sRGB">
<feFlood flood-opacity="0" result="BackgroundImageFix"/>
<feColorMatrix in="SourceAlpha" type="matrix" values="0 0 0 0 0 0 0 0 0 0 0 0 0 0 0 0 0 0 127 0" result="hardAlpha"/>
<feOffset/>
<feGaussianBlur stdDeviation="8"/>
<feColorMatrix type="matrix" values="0 0 0 0 0 0 0 0 0 0 0 0 0 0 0 0 0 0 0.15 0"/>
<feBlend mode="normal" in2="BackgroundImageFix" result="effect1_dropShadow"/>
<feBlend mode="normal" in="SourceGraphic" in2="effect1_dropShadow" result="shape"/>
</filter>
<filter id="filter11_i" x="136.779" y="39.0904" width="103.821" height="106.627" filterUnits="userSpaceOnUse" color-interpolation-filters="sRGB">
<feFlood flood-opacity="0" result="BackgroundImageFix"/>
<feBlend mode="normal" in="SourceGraphic" in2="BackgroundImageFix" result="shape"/>
<feColorMatrix in="SourceAlpha" type="matrix" values="0 0 0 0 0 0 0 0 0 0 0 0 0 0 0 0 0 0 127 0" result="hardAlpha"/>
<feOffset dy="2.80596"/>
<feGaussianBlur stdDeviation="4.20895"/>
<feComposite in2="hardAlpha" operator="arithmetic" k2="-1" k3="1"/>
<feColorMatrix type="matrix" values="0 0 0 0 0 0 0 0 0 0 0 0 0 0 0 0 0 0 0.34 0"/>
<feBlend mode="overlay" in2="shape" result="effect1_innerShadow"/>
</filter>
<filter id="filter12_d" x="54.5978" y="95.6137" width="269.17" height="145.909" filterUnits="userSpaceOnUse" color-interpolation-filters="sRGB">
<feFlood flood-opacity="0" result="BackgroundImageFix"/>
<feColorMatrix in="SourceAlpha" type="matrix" values="0 0 0 0 0 0 0 0 0 0 0 0 0 0 0 0 0 0 127 0" result="hardAlpha"/>
<feOffset/>
<feGaussianBlur stdDeviation="28.0596"/>
<feColorMatrix type="matrix" values="0 0 0 0 0.360784 0 0 0 0 0.615686 0 0 0 0 1 0 0 0 1 0"/>
<feBlend mode="normal" in2="BackgroundImageFix" result="effect1_dropShadow"/>
<feBlend mode="normal" in="SourceGraphic" in2="effect1_dropShadow" result="shape"/>
</filter>
<linearGradient id="paint0_linear" x1="188.69" y1="23.6569" x2="188.69" y2="158.343" gradientUnits="userSpaceOnUse">
<stop stop-color="#CECDFF"/>
<stop offset="1" stop-color="#817FEA"/>
</linearGradient>
<linearGradient id="paint1_linear" x1="188.69" y1="26.4627" x2="188.69" y2="155.537" gradientUnits="userSpaceOnUse">
<stop stop-color="#B9B8FF"/>
<stop offset="1" stop-color="#9F9DF3"/>
</linearGradient>
<linearGradient id="paint2_linear" x1="188.689" y1="36.2839" x2="188.689" y2="145.716" gradientUnits="userSpaceOnUse">
<stop stop-color="#A59DF5"/>
<stop offset="1" stop-color="#C3BDFF"/>
</linearGradient>
<radialGradient id="paint3_radial" cx="0" cy="0" r="1" gradientUnits="userSpaceOnUse" gradientTransform="translate(172.311 66.4915) rotate(53.514) scale(78.2229 99.5459)">
<stop stop-color="#5DC6FB"/>
<stop offset="1" stop-color="#3B39F5"/>
</radialGradient>
<radialGradient id="paint4_radial" cx="0" cy="0" r="1" gradientUnits="userSpaceOnUse" gradientTransform="translate(167.726 61.9056) rotate(51.3402) scale(12.5844 25.1951)">
<stop stop-color="white" stop-opacity="0.6"/>
<stop offset="1" stop-color="white" stop-opacity="0"/>
</radialGradient>
<radialGradient id="paint5_radial" cx="0" cy="0" r="1" gradientUnits="userSpaceOnUse" gradientTransform="translate(187.626 171) rotate(90) scale(24.5522 200.626)">
<stop stop-color="#5C9DFF" stop-opacity="0.3"/>
<stop offset="1" stop-color="#5C9DFF" stop-opacity="0"/>
</radialGradient>
<radialGradient id="paint6_radial" cx="0" cy="0" r="1" gradientUnits="userSpaceOnUse" gradientTransform="translate(187.626 171) rotate(90) scale(4.91044 129.074)">
<stop stop-color="#5C9DFF" stop-opacity="0.25"/>
<stop offset="1" stop-color="#5C9DFF" stop-opacity="0"/>
</radialGradient>
</defs>
</svg>
