<svg xmlns="http://www.w3.org/2000/svg" viewBox="0 0 184.26 158.27"><defs><style>.cls-1{opacity:0.25;}.cls-2{fill:#f8941c;}</style></defs><g id="Camada_2" data-name="Camada 2"><g id="Camada_6" data-name="Camada 6"><g class="cls-1"><path d="M146.88,55l1.19-.07a20.65,20.65,0,0,1,3.41-.07,28.82,28.82,0,0,1,12,3,31.12,31.12,0,0,1,3.53,2c.59.39,1.2.78,1.78,1.21l1.71,1.44a31,31,0,0,1,6.2,7.21,31.56,31.56,0,0,1,4.08,9.41,33.44,33.44,0,0,1,1,10.57,36.53,36.53,0,0,1-.74,5.3c-.21.86-.48,1.71-.72,2.57a15.29,15.29,0,0,1-.87,2.49,32,32,0,0,1-5.23,8.82,33.15,33.15,0,0,1-7.05,6.39,42.51,42.51,0,0,1-3.79,2.2,38.41,38.41,0,0,1-3.78,1.53,29.54,29.54,0,0,1-12.24,1.53,23.32,23.32,0,0,1-3.38-.5l-1.17-.23,1.2-.08a30.61,30.61,0,0,0,3.33-.26,34.69,34.69,0,0,0,11.08-3.32c1.09-.46,2.09-1.21,3.2-1.81s2.11-1.47,3.16-2.3a35.48,35.48,0,0,0,5.69-6.06,31.72,31.72,0,0,0,4.12-7.77,13.1,13.1,0,0,0,.71-2.14c.18-.72.4-1.45.57-2.18a32.61,32.61,0,0,0,.54-4.52,28.28,28.28,0,0,0-.69-9,30.12,30.12,0,0,0-3.11-8.22,32.24,32.24,0,0,0-4.88-6.74l-1.4-1.4-1.45-1.26a32.28,32.28,0,0,0-2.93-2.22,33,33,0,0,0-10.59-4.67,27.18,27.18,0,0,0-3.27-.7Z"/></g><g class="cls-1"><path d="M103.58,27.4s.06-.42.18-1.21a23.39,23.39,0,0,1,.74-3.43,26.41,26.41,0,0,1,6.55-10.84,26.89,26.89,0,0,1,7-5.16,27.49,27.49,0,0,1,9.43-2.87,28.5,28.5,0,0,1,10.59.73,29.82,29.82,0,0,1,10,4.74,30.13,30.13,0,0,1,7.43,8.14,28.59,28.59,0,0,1,3.79,9.94,29.31,29.31,0,0,1,0,9.85,26.58,26.58,0,0,1-2.88,8.23,26,26,0,0,1-8.52,9.38,22,22,0,0,1-3,1.73l-1.12.5.95-.77a25.79,25.79,0,0,0,2.54-2.29,28.68,28.68,0,0,0,6.39-9.85,27.9,27.9,0,0,0,1.7-7.46,30,30,0,0,0-.64-8.37,26.88,26.88,0,0,0-3.54-8.11,24.76,24.76,0,0,0-6.24-6.59,24.64,24.64,0,0,0-8.11-4.06,26.11,26.11,0,0,0-17,.78,27.77,27.77,0,0,0-6.64,3.81,29,29,0,0,0-7.61,9,31.81,31.81,0,0,0-1.45,3.1Z"/></g><g class="cls-1"><path d="M84,17.94s0-.1.13-.29a5.85,5.85,0,0,1,.42-.82,11.09,11.09,0,0,1,2-2.57,11.54,11.54,0,0,1,1.75-1.4,12.92,12.92,0,0,1,2.21-1.2,13.69,13.69,0,0,1,2.58-.85,18.54,18.54,0,0,1,2.79-.38,20.11,20.11,0,0,1,2.81.16,14.15,14.15,0,0,1,2.64.65,12.06,12.06,0,0,1,2.3,1,10.89,10.89,0,0,1,1.85,1.26,10.72,10.72,0,0,1,2.24,2.41,6.36,6.36,0,0,1,.63,1.07l-1.13-.45c-.71-.28-1.7-.64-2.86-1-.57-.18-1.21-.32-1.85-.49s-1.35-.26-2-.38-1.45-.15-2.18-.22a16.89,16.89,0,0,0-2.25,0,13.79,13.79,0,0,0-2.23.18c-.73.11-1.46.2-2.15.37s-1.38.34-2,.54-1.25.42-1.82.63c-1.12.45-2.09.88-2.77,1.22l-.8.39Z"/></g><g class="cls-1"><path d="M32.4,29.77h0l-.09-.85a17.43,17.43,0,0,1-.2-2.54,24.12,24.12,0,0,1,1.66-9.12,24.81,24.81,0,0,1,3-5.61c.64-.93,1.41-1.82,2.18-2.75a26.83,26.83,0,0,1,2.68-2.52A27.59,27.59,0,0,1,48.21,2.3,30.46,30.46,0,0,1,56,.18a29.88,29.88,0,0,1,8,.19,26.88,26.88,0,0,1,7.38,2.35,26.4,26.4,0,0,1,6,4,24.82,24.82,0,0,1,4.23,4.72,23.83,23.83,0,0,1,3.81,8.45,16.11,16.11,0,0,1,.44,2.52c.06.58.1.89.1.89l-.4-.81c-.26-.52-.59-1.3-1.14-2.22a30.33,30.33,0,0,0-5.18-6.84,31.16,31.16,0,0,0-4.32-3.53,31.15,31.15,0,0,0-5.43-2.79,27.9,27.9,0,0,0-6.25-1.55,24.31,24.31,0,0,0-6.6,0A25.82,25.82,0,0,0,50.2,7.1a27.82,27.82,0,0,0-5.68,3c-.9.56-1.64,1.29-2.46,1.91s-1.5,1.36-2.15,2.1a29.43,29.43,0,0,0-3.34,4.46,31.09,31.09,0,0,0-3.38,7.89c-.29,1-.42,1.87-.56,2.43l-.18.84H32.4Z"/></g><g class="cls-1"><path d="M14.16,59.66l-.33-.41c-.22-.28-.56-.67-.94-1.22l-.65-.91L11.66,56a12.11,12.11,0,0,1-1.11-3c-.15-.57-.31-1.17-.45-1.8s-.12-1.3-.16-2l-.06-1.05c0-.35,0-.71.07-1.07a21.3,21.3,0,0,1,.24-2.21,20.15,20.15,0,0,1,1.39-4.46,11.7,11.7,0,0,1,1.1-2.14A23.14,23.14,0,0,1,14,36.21l1.61-1.84c.56-.58,1.2-1.08,1.8-1.62a9.31,9.31,0,0,1,1.93-1.38,16.81,16.81,0,0,1,2-1.12c.7-.31,1.39-.59,2.06-.85a18.28,18.28,0,0,1,2.06-.52,14.69,14.69,0,0,1,3.8-.4,14.44,14.44,0,0,1,3.16.3,10,10,0,0,1,2.33.63c1.25.45,1.92.77,1.92.77s-.77.15-2,.3a12.63,12.63,0,0,0-2.22.37,21.56,21.56,0,0,0-2.73.7,21.68,21.68,0,0,0-3,1.16,14.6,14.6,0,0,0-1.53.77c-.49.32-1,.63-1.52.92a10,10,0,0,0-1.45,1.09,13.24,13.24,0,0,0-1.4,1.2c-.44.44-.93.83-1.34,1.31l-1.18,1.47A18.63,18.63,0,0,0,17.2,41a8.18,8.18,0,0,0-.93,1.62A27,27,0,0,0,14.78,46c-.16.58-.31,1.15-.46,1.71l-.25.84Q14,49,14,49.4c-.08.56-.17,1.1-.27,1.64s0,1.06-.08,1.56a17.08,17.08,0,0,0,.05,2.8c0,.44,0,.84,0,1.22s.12.71.18,1c.11.61.15,1.13.21,1.48S14.16,59.66,14.16,59.66Z"/></g><g class="cls-1"><path d="M8.62,90.67l-.34-.18c-.23-.13-.57-.3-1-.56a7.5,7.5,0,0,1-1.43-1,10.9,10.9,0,0,1-1.66-1.62A12,12,0,0,1,2.6,85a14.59,14.59,0,0,1-1.34-2.84A16.51,16.51,0,0,1,.5,78.9a21.44,21.44,0,0,1-.14-3.5A20.85,20.85,0,0,1,1,72,16,16,0,0,1,2.2,68.82a14.68,14.68,0,0,1,1.7-2.63,11.6,11.6,0,0,1,1.91-2,10.35,10.35,0,0,1,1.86-1.38A8,8,0,0,1,9.23,62c.9-.38,1.42-.54,1.42-.54s-.34.47-.93,1.18a11.17,11.17,0,0,0-1,1.33,15.91,15.91,0,0,0-1.14,1.74,22.11,22.11,0,0,0-1.13,2.12c-.4.73-.62,1.61-1,2.43a27.43,27.43,0,0,0-.69,2.67,17.32,17.32,0,0,0-.39,2.8,17.7,17.7,0,0,0,0,2.82,24.16,24.16,0,0,0,.31,2.74,25.94,25.94,0,0,0,.65,2.53A17.9,17.9,0,0,0,6.16,86a16.8,16.8,0,0,0,.9,1.89,9.89,9.89,0,0,0,.81,1.45c.25.39.42.73.55.95Z"/></g><g class="cls-1"><path d="M57.68,130.7l-.73,1a26.27,26.27,0,0,1-2.3,2.68,29.91,29.91,0,0,1-10.68,7,30.43,30.43,0,0,1-8.51,2,47.89,47.89,0,0,1-4.82.08,32.5,32.5,0,0,1-5-.75,30.84,30.84,0,0,1-9.85-4,35.83,35.83,0,0,1-8.34-7.18A35.42,35.42,0,0,1,2,121.93,30.63,30.63,0,0,1,0,111.5,31.61,31.61,0,0,1,4.82,93.77a29.73,29.73,0,0,1,8.89-9.15,24.77,24.77,0,0,1,3.05-1.76l1.12-.53-.95.79c-.62.5-1.5,1.29-2.55,2.33a33.9,33.9,0,0,0-6.84,9.8,33.18,33.18,0,0,0-2.37,7.43,31.16,31.16,0,0,0-.4,8.57,29.4,29.4,0,0,0,2.1,8.82,30.13,30.13,0,0,0,4.74,8,30.56,30.56,0,0,0,7,6.2,29.3,29.3,0,0,0,8.24,3.77,38.58,38.58,0,0,0,4.28.94c1.43.11,2.83.34,4.21.31a32.91,32.91,0,0,0,7.76-.89A34.12,34.12,0,0,0,54,133.56c1.21-.85,2.16-1.54,2.77-2.06Z"/></g><g class="cls-1"><path d="M141.59,88.73l.64,1.63c.4,1.06,1.07,2.61,1.77,4.65a49.76,49.76,0,0,1,1.86,17.81c-.23,1.86-.57,3.8-.89,5.82-.51,2-1.12,4-1.79,6.06l-1.31,3a22.66,22.66,0,0,1-1.48,3.06,41,41,0,0,1-3.82,5.88c-.74.94-1.46,1.91-2.24,2.85l-2.56,2.63-1.3,1.32L129,144.66l-3,2.33a50.18,50.18,0,0,1-13.69,6.69,47.09,47.09,0,0,1-7.49,1.67,28.52,28.52,0,0,1-3.8.33c-1.27,0-2.53.19-3.79.15a46.57,46.57,0,0,1-14.49-2.57A45.88,45.88,0,0,1,70.63,147a47.26,47.26,0,0,1-8.89-8.32,44.77,44.77,0,0,1-8.4-15.81c-.29-1-.57-1.95-.75-2.76s-.27-1.52-.37-2.08c-.19-1.13-.3-1.73-.3-1.73l.6,1.65c.19.53.42,1.19.69,2s.71,1.62,1.13,2.58A50,50,0,0,0,64,136.62a51.62,51.62,0,0,0,8.82,7,47.08,47.08,0,0,0,11.39,5.07,45.8,45.8,0,0,0,13.1,1.9c1.13,0,2.26-.13,3.39-.19a22.76,22.76,0,0,0,3.4-.33,41.09,41.09,0,0,0,6.66-1.58,44.89,44.89,0,0,0,12.3-5.8l2.68-2,1.34-1,1.21-1.15,2.41-2.27c.73-.81,1.41-1.66,2.1-2.49a45.18,45.18,0,0,0,3.72-5.17,20,20,0,0,0,1.52-2.7c.47-.91.93-1.81,1.39-2.69.71-1.87,1.41-3.69,2-5.47.44-1.83.93-3.6,1.31-5.32A56.36,56.36,0,0,0,143,95.25c-.43-2.06-.78-3.7-1-4.8S141.59,88.73,141.59,88.73Z"/></g><g class="cls-1"><path d="M17.46,99.39s0,.16.05.46.1.73.18,1.28a36.08,36.08,0,0,0,1,4.41,27.23,27.23,0,0,0,.93,2.82c.33,1,.87,2,1.33,3a23.22,23.22,0,0,0,1.84,2.91A17.09,17.09,0,0,0,25,116.93a27.87,27.87,0,0,0,2.66,2.31l2.94,1.83c1,.45,2,.92,3,1.38s1.94.64,2.81,1a43.62,43.62,0,0,0,4.38,1.2l1.7.47-1.76.06a22.21,22.21,0,0,1-4.66-.22c-1-.16-2-.27-3.1-.56s-2.21-.72-3.38-1.15-2.27-1.14-3.39-1.83a29.66,29.66,0,0,1-3.08-2.54,20.13,20.13,0,0,1-2.53-3.11,20.72,20.72,0,0,1-1.85-3.38,22.32,22.32,0,0,1-1.1-3.4,19,19,0,0,1-.53-3.13,20.94,20.94,0,0,1,0-4.68c.06-.56.15-1,.21-1.3S17.46,99.39,17.46,99.39Z"/></g><g class="cls-1"><path d="M71.35,128.44l.71.32,2,.82c1.78.68,4.33,1.58,7.44,2.44,1.56.41,3.26.83,5.06,1.17a57.12,57.12,0,0,0,5.7.8,49.22,49.22,0,0,0,6.1.15,37.3,37.3,0,0,0,6.2-.79c1-.16,2-.51,3-.75s2-.65,2.92-1.06a33.42,33.42,0,0,0,5.35-2.79l1.23-.8,1.15-.87a20.93,20.93,0,0,0,2.16-1.76,50.29,50.29,0,0,0,3.66-3.62,65,65,0,0,0,4.76-6.18l1.67-2.5-1.2,2.76a44.1,44.1,0,0,1-4,6.89,36,36,0,0,1-3.49,4.1,22,22,0,0,1-2.15,2l-1.16,1-1.28.9a30.45,30.45,0,0,1-5.67,3.23c-1,.45-2.08.8-3.14,1.19s-2.16.67-3.27.85a38.84,38.84,0,0,1-6.67.76,44.75,44.75,0,0,1-12.33-1.6,48.38,48.38,0,0,1-5.09-1.65,51,51,0,0,1-7.19-3.43c-.83-.48-1.46-.89-1.88-1.17Z"/></g><g class="cls-1"><path d="M124.32,22l.32-.11a8.54,8.54,0,0,1,.9-.26,15.57,15.57,0,0,1,3.34-.43,13.78,13.78,0,0,1,2.27.11,14.58,14.58,0,0,1,5.13,1.56,12.42,12.42,0,0,1,2.42,1.67,13.21,13.21,0,0,1,2,2.18,18.35,18.35,0,0,1,1.38,2.47,24.94,24.94,0,0,1,.76,2.49,13.64,13.64,0,0,1,.28,2.27,13.09,13.09,0,0,1-.14,3.36c-.1.79-.19,1.24-.19,1.24s-.14-.47-.35-1.22a28.64,28.64,0,0,0-.84-3.1c-.23-.61-.39-1.3-.68-2l-1-2c-.45-.63-.84-1.33-1.33-1.95a10.8,10.8,0,0,0-1.67-1.71A10.37,10.37,0,0,0,135,25.15a21.25,21.25,0,0,0-2.12-1.09c-.73-.26-1.43-.59-2.14-.77s-1.38-.38-2-.55c-1.28-.27-2.38-.47-3.16-.57l-.92-.12Z"/></g></g><g id="Camada_5" data-name="Camada 5"><path class="cls-2" d="M149.31,57.44l1.19-.08a19.79,19.79,0,0,1,3.41-.06,28.93,28.93,0,0,1,12,3,32.83,32.83,0,0,1,3.54,2c.58.4,1.19.78,1.78,1.22L172.9,65a33.14,33.14,0,0,1,10.27,16.62,33.44,33.44,0,0,1,1,10.57,37.74,37.74,0,0,1-.73,5.3c-.22.87-.48,1.72-.72,2.57a16.84,16.84,0,0,1-.88,2.5,32.26,32.26,0,0,1-5.23,8.82,32.62,32.62,0,0,1-7.05,6.38,37,37,0,0,1-3.79,2.2A32.55,32.55,0,0,1,162,121.5,29.54,29.54,0,0,1,149.76,123a22.43,22.43,0,0,1-3.38-.49l-1.17-.23,1.2-.08a31,31,0,0,0,3.33-.27,34,34,0,0,0,11.08-3.32c1.09-.46,2.1-1.21,3.2-1.81s2.11-1.47,3.16-2.29a35.57,35.57,0,0,0,5.7-6.07A31.51,31.51,0,0,0,177,100.7a13.31,13.31,0,0,0,.71-2.13c.19-.73.4-1.46.57-2.19a31.19,31.19,0,0,0,.54-4.51,28.35,28.35,0,0,0-.69-9,30.22,30.22,0,0,0-3.1-8.22,32.57,32.57,0,0,0-4.89-6.73l-1.39-1.41-1.46-1.26A32.28,32.28,0,0,0,164.35,63a33.1,33.1,0,0,0-10.59-4.67,31.27,31.27,0,0,0-3.27-.7Z"/><path class="cls-2" d="M106,29.83s.06-.42.18-1.21a24.43,24.43,0,0,1,.74-3.42,26.54,26.54,0,0,1,6.55-10.85,27.55,27.55,0,0,1,16.46-8,28.56,28.56,0,0,1,10.6.72,28.82,28.82,0,0,1,17.37,12.88,28.47,28.47,0,0,1,3.79,9.94,29.05,29.05,0,0,1,0,9.85A26.58,26.58,0,0,1,158.8,48a26,26,0,0,1-8.52,9.38,22,22,0,0,1-3.05,1.73l-1.12.5,1-.76A29.3,29.3,0,0,0,156,46.65a27.9,27.9,0,0,0,1.7-7.46,29.61,29.61,0,0,0-.64-8.37,26.88,26.88,0,0,0-3.54-8.11,24.75,24.75,0,0,0-6.24-6.59,24.47,24.47,0,0,0-8.1-4.05,26.53,26.53,0,0,0-8.8-1,27,27,0,0,0-8.2,1.8,28.46,28.46,0,0,0-6.64,3.81,29.08,29.08,0,0,0-7.61,9c-.64,1.3-1.19,2.34-1.45,3.09Z"/><path class="cls-2" d="M86.44,20.37s0-.1.13-.29a7.2,7.2,0,0,1,.42-.82,10.91,10.91,0,0,1,2.06-2.57,11.4,11.4,0,0,1,1.74-1.39A12.68,12.68,0,0,1,93,14.09a13.93,13.93,0,0,1,2.58-.85,19.57,19.57,0,0,1,2.78-.37,17.46,17.46,0,0,1,2.81.16,14,14,0,0,1,2.64.64,12.72,12.72,0,0,1,2.3,1A11.51,11.51,0,0,1,108,16a10.94,10.94,0,0,1,2.24,2.41,6.56,6.56,0,0,1,.64,1.07L109.71,19c-.7-.27-1.7-.64-2.85-1-.58-.18-1.22-.32-1.86-.5s-1.35-.26-2-.38-1.44-.14-2.18-.21a15.22,15.22,0,0,0-2.24,0,15,15,0,0,0-2.23.18c-.73.11-1.47.2-2.16.37s-1.38.34-2,.54-1.25.42-1.82.64c-1.11.44-2.09.87-2.76,1.21l-.81.39Z"/><path class="cls-2" d="M34.83,32.2h0l-.1-.84a19.32,19.32,0,0,1-.2-2.55,24.35,24.35,0,0,1,1.66-9.12,24.21,24.21,0,0,1,3-5.6c.64-.94,1.4-1.83,2.17-2.75a23.91,23.91,0,0,1,2.69-2.52,27,27,0,0,1,6.57-4.09,30.87,30.87,0,0,1,7.75-2.12,29.47,29.47,0,0,1,8,.2,27,27,0,0,1,13.37,6.3A24.53,24.53,0,0,1,84,13.84a23.85,23.85,0,0,1,3.82,8.44,17.11,17.11,0,0,1,.43,2.52c.07.58.1.89.1.89l-.4-.81c-.25-.52-.59-1.29-1.13-2.21A29.75,29.75,0,0,0,77.32,12.3a30.17,30.17,0,0,0-5.43-2.8A28.5,28.5,0,0,0,65.65,8,24.39,24.39,0,0,0,59,8a25.48,25.48,0,0,0-6.41,1.57,27.82,27.82,0,0,0-5.68,3c-.9.56-1.64,1.3-2.46,1.91s-1.5,1.37-2.15,2.1A29.94,29.94,0,0,0,39,21a30.83,30.83,0,0,0-3.37,7.9c-.3,1-.43,1.86-.57,2.43l-.18.83h-.05Z"/><path class="cls-2" d="M16.59,62.09l-.33-.41c-.21-.28-.56-.67-.94-1.22l-.65-.91c-.18-.36-.37-.75-.58-1.16a12.35,12.35,0,0,1-1.11-3c-.14-.57-.31-1.17-.44-1.8s-.13-1.3-.16-2c0-.35-.05-.69-.07-1.05s0-.71.07-1.07a21.3,21.3,0,0,1,.24-2.21A20.87,20.87,0,0,1,14,42.84a12.36,12.36,0,0,1,1.1-2.14,23.08,23.08,0,0,1,1.32-2.05L18,36.81c.56-.59,1.21-1.09,1.8-1.63a9.7,9.7,0,0,1,1.93-1.38,17.58,17.58,0,0,1,2-1.12c.69-.31,1.38-.59,2.06-.85a15.74,15.74,0,0,1,2-.51,14.79,14.79,0,0,1,3.81-.41,14.5,14.5,0,0,1,3.16.3,10,10,0,0,1,2.32.64c1.25.45,1.92.76,1.92.76s-.77.15-2,.3a12.74,12.74,0,0,0-2.22.38,20.89,20.89,0,0,0-2.72.69,22.06,22.06,0,0,0-3,1.17,12.21,12.21,0,0,0-1.54.76c-.49.32-1,.63-1.51.92a9.55,9.55,0,0,0-1.45,1.1,11.38,11.38,0,0,0-1.41,1.19c-.44.44-.93.84-1.34,1.31l-1.18,1.48c-.41.47-.71,1-1.08,1.54a8.48,8.48,0,0,0-.93,1.63,27.75,27.75,0,0,0-1.49,3.36c-.15.58-.31,1.15-.46,1.72L16.5,51q-.06.43-.12.84c-.07.56-.16,1.11-.26,1.64S16.06,54.53,16,55a16.23,16.23,0,0,0,0,2.81c0,.43,0,.84.05,1.21s.13.71.18,1c.12.61.16,1.14.21,1.48S16.59,62.09,16.59,62.09Z"/><path class="cls-2" d="M11.05,93.1l-.34-.18c-.22-.13-.57-.3-1-.56a7.5,7.5,0,0,1-1.43-1,10.86,10.86,0,0,1-1.65-1.62A11,11,0,0,1,5,87.45,14.48,14.48,0,0,1,3.7,84.62a16,16,0,0,1-.77-3.29,20.38,20.38,0,0,1-.13-3.5,20.53,20.53,0,0,1,.62-3.43,16.72,16.72,0,0,1,1.21-3.15,15,15,0,0,1,1.7-2.63,11.52,11.52,0,0,1,1.91-2,10.31,10.31,0,0,1,1.86-1.39,7.66,7.66,0,0,1,1.56-.82c.9-.38,1.42-.54,1.42-.54s-.33.46-.93,1.18a11,11,0,0,0-1,1.32A17.72,17.72,0,0,0,10,68.11a23,23,0,0,0-1.12,2.11c-.41.74-.62,1.62-1,2.43s-.51,1.75-.69,2.67a17.47,17.47,0,0,0-.39,2.8,17.7,17.7,0,0,0,0,2.82,24.16,24.16,0,0,0,.31,2.74c.25.86.34,1.75.65,2.53a21.91,21.91,0,0,0,.82,2.26,19.6,19.6,0,0,0,.9,1.88,10.3,10.3,0,0,0,.81,1.45c.25.39.42.74.55,1Z"/><path class="cls-2" d="M60.12,133.13l-.74,1a26.27,26.27,0,0,1-2.3,2.68,29.56,29.56,0,0,1-10.68,7,30,30,0,0,1-8.5,2,48,48,0,0,1-4.82.08,31.44,31.44,0,0,1-5-.75,30.34,30.34,0,0,1-9.84-4,35.68,35.68,0,0,1-8.35-7.18,35.53,35.53,0,0,1-5.44-9.57A32.05,32.05,0,0,1,7.25,96.2a29.73,29.73,0,0,1,8.89-9.15,24.74,24.74,0,0,1,3.06-1.76l1.12-.53-.95.79a31.92,31.92,0,0,0-2.55,2.33A33.9,33.9,0,0,0,10,97.68a33.18,33.18,0,0,0-2.37,7.43,31.58,31.58,0,0,0-.4,8.57,29.4,29.4,0,0,0,2.1,8.82,29.82,29.82,0,0,0,4.74,8,30.56,30.56,0,0,0,7,6.2,29,29,0,0,0,8.24,3.77,39.08,39.08,0,0,0,4.28.94c1.43.11,2.83.34,4.21.32A32.8,32.8,0,0,0,56.4,136c1.21-.85,2.16-1.54,2.77-2.06Z"/><path class="cls-2" d="M144,91.16l.64,1.63c.4,1.07,1.07,2.62,1.77,4.65a49.81,49.81,0,0,1,1.86,17.81c-.22,1.87-.57,3.8-.89,5.82-.5,2-1.12,4-1.78,6.07-.44,1-.88,2-1.32,3a21.53,21.53,0,0,1-1.48,3.06,41.66,41.66,0,0,1-3.82,5.89c-.74.93-1.46,1.91-2.23,2.84l-2.56,2.63-1.31,1.33-1.44,1.17-3,2.34a50.33,50.33,0,0,1-13.69,6.69,47.93,47.93,0,0,1-7.49,1.66,28.52,28.52,0,0,1-3.8.33c-1.27,0-2.53.19-3.79.15a46.62,46.62,0,0,1-14.49-2.57,45.74,45.74,0,0,1-12.18-6.25,47.53,47.53,0,0,1-8.89-8.31,45.27,45.27,0,0,1-8.4-15.81c-.29-1-.56-2-.75-2.77s-.27-1.52-.37-2.08l-.29-1.73s.2.58.59,1.65l.69,2c.31.76.72,1.62,1.13,2.58a50,50,0,0,0,9.7,14.12,51.8,51.8,0,0,0,8.83,7,47.4,47.4,0,0,0,11.38,5.07,46.2,46.2,0,0,0,13.1,1.89c1.13,0,2.26-.13,3.4-.19a22.76,22.76,0,0,0,3.39-.33,42.13,42.13,0,0,0,6.66-1.57,45.07,45.07,0,0,0,12.3-5.81l2.68-2,1.34-1,1.21-1.15,2.41-2.26c.73-.82,1.41-1.67,2.11-2.5A44.56,44.56,0,0,0,139,131a18.88,18.88,0,0,0,1.52-2.69l1.39-2.7c.71-1.86,1.41-3.68,2-5.47.43-1.83.92-3.6,1.3-5.32a56.37,56.37,0,0,0,.15-17.16c-.43-2.06-.77-3.69-1-4.8S144,91.16,144,91.16Z"/><path class="cls-2" d="M19.89,101.83s0,.16.05.45.1.73.18,1.28a36.18,36.18,0,0,0,1,4.42,27.9,27.9,0,0,0,.93,2.81c.33,1,.87,2,1.33,3a23.65,23.65,0,0,0,1.84,2.91,16.65,16.65,0,0,0,2.29,2.68,27.9,27.9,0,0,0,2.67,2.32l2.93,1.82c1,.45,2,.93,3,1.38s1.94.64,2.82,1a38.17,38.17,0,0,0,4.37,1.2l1.7.47-1.75.07a21.75,21.75,0,0,1-4.67-.23c-1-.16-2-.27-3.1-.56s-2.21-.72-3.38-1.15-2.26-1.14-3.38-1.82a30.09,30.09,0,0,1-3.09-2.55A20.24,20.24,0,0,1,23,118.16a19.93,19.93,0,0,1-1.84-3.38,22,22,0,0,1-1.11-3.4,18.86,18.86,0,0,1-.53-3.12,20.93,20.93,0,0,1,0-4.69c.05-.56.15-1,.2-1.29S19.89,101.83,19.89,101.83Z"/><path class="cls-2" d="M73.78,130.88l.72.31,2,.83c1.77.67,4.33,1.58,7.44,2.44,1.55.4,3.25.82,5.05,1.16a57.12,57.12,0,0,0,5.7.8,49.26,49.26,0,0,0,6.1.15,36.27,36.27,0,0,0,6.2-.79c1-.15,2-.51,3-.75s2-.65,2.91-1.06a32.23,32.23,0,0,0,5.35-2.79l1.23-.79,1.15-.88a19.7,19.7,0,0,0,2.16-1.76,50.29,50.29,0,0,0,3.66-3.62,64.56,64.56,0,0,0,4.77-6.18l1.66-2.49-1.2,2.75a43.2,43.2,0,0,1-4,6.89,37.86,37.86,0,0,1-3.48,4.11,21,21,0,0,1-2.16,2l-1.16,1-1.28.91a30.89,30.89,0,0,1-5.66,3.22c-1,.46-2.09.8-3.14,1.19s-2.16.67-3.28.86a38.82,38.82,0,0,1-6.67.75,45.27,45.27,0,0,1-12.33-1.59,50.55,50.55,0,0,1-5.08-1.66,52.32,52.32,0,0,1-7.19-3.42c-.83-.48-1.46-.9-1.89-1.18Z"/><path class="cls-2" d="M126.76,24.45l.31-.11a8.86,8.86,0,0,1,.9-.27,15.66,15.66,0,0,1,3.34-.43,13.84,13.84,0,0,1,2.27.12,14,14,0,0,1,5.14,1.56A13,13,0,0,1,141.14,27a13.6,13.6,0,0,1,2,2.18,16.49,16.49,0,0,1,1.38,2.48,25.76,25.76,0,0,1,.77,2.48,14.71,14.71,0,0,1,.27,2.27,13.07,13.07,0,0,1-.14,3.36c-.1.8-.19,1.24-.19,1.24l-.34-1.22a29.07,29.07,0,0,0-.85-3.1c-.23-.61-.38-1.29-.68-2l-1-2c-.45-.63-.83-1.33-1.33-2A10.8,10.8,0,0,0,139.37,29a10.37,10.37,0,0,0-1.93-1.43,20.08,20.08,0,0,0-2.11-1.09c-.74-.26-1.44-.59-2.15-.77s-1.38-.38-2-.55c-1.27-.26-2.38-.47-3.16-.57l-.91-.12Z"/></g><g id="Camada_3" data-name="Camada 3"><g class="cls-1"><path d="M137.65,82.37c.2,13.34-16.19,29.4-44,29.4s-50.77-10.68-50.77-29.4c0-3,11.64,13,15.55,10.69,15.72-9.24,43.24-5.83,62.19-12.14,5.08-1.7,12.14-21.38,12.14-21.38S137.38,63.66,137.65,82.37Z"/><path d="M90.92,46.32c-1.34-.5-2.69-1-4-1.43-1-.31-2.09-.65-3.14-.93-.52-.14-1-.28-1.57-.4l-.79-.19c-.25,0-1.54-.84-2.52-1.32A57,57,0,0,0,65.3,47.27l.48.17c1.14.4,2.24.86,3.36,1.3,2.2.93,4.37,1.92,6.5,3l1.43.73c.78-.45,1.58-.89,2.38-1.31A76.09,76.09,0,0,1,90.92,46.32Z"/><path d="M79,53.51A98.31,98.31,0,0,1,87.88,59c1.86,1.29,3.69,2.63,5.47,4,.7-.4,1.4-.79,2.11-1.16a78.59,78.59,0,0,1,14.34-5.73q-2.39-1.59-4.86-3.06a87.85,87.85,0,0,0-9.85-5A76.49,76.49,0,0,0,80.3,52.9Z"/><path d="M112.26,46.18h-.15c-.6,0-1.3,0-2,0s-1.35,0-2,.07c-1.35.07-2.71.18-4.07.33-1.58.16-3.15.38-4.73.64,2.29,1.31,4.52,2.71,6.68,4.22,1.92,1.34,3.8,2.73,5.63,4.19q3.93-1,8-1.72c1.4-.23,2.81-.43,4.24-.58.71-.08,1.42-.15,2.14-.2l.75,0a58.72,58.72,0,0,0-13.08-7.51A1.94,1.94,0,0,1,112.26,46.18Z"/><path d="M103.58,43.2c.86-.15,1.73-.27,2.59-.39a49.41,49.41,0,0,0-12.11-2.46,55.82,55.82,0,0,0-8.41.44c.8.29,1.6.6,2.4.91,2.11.87,4.19,1.8,6.23,2.82l1,.49h0A80.51,80.51,0,0,1,103.58,43.2Z"/><path d="M64.05,62.22c.5-.5,1-1,1.53-1.45l1.58-1.4,1.64-1.32c.54-.46,1.11-.87,1.68-1.29s1.13-.85,1.72-1.23,1.26-.86,1.91-1.27c-2-.86-4.09-1.62-6.17-2.33-1.09-.35-2.18-.72-3.28-1q-.82-.25-1.65-.45c-.54-.15-1.12-.28-1.61-.39h0a1.88,1.88,0,0,1-.47-.17A50.17,50.17,0,0,0,50.1,59.28q.72.19,1.41.42c1,.28,1.89.63,2.82.95,1.85.7,3.67,1.45,5.44,2.3.8.38,1.6.78,2.38,1.19l.41-.44C63,63.19,63.55,62.71,64.05,62.22Z"/><path d="M71.24,57.86c-.58.37-1.16.75-1.71,1.16l-1.69,1.21-1.62,1.28c-.56.42-1.07.88-1.6,1.33s-1.05.9-1.55,1.38l-.27.26a65.84,65.84,0,0,1,7.1,4.36,70.75,70.75,0,0,1,7.89,6.41l.79-.86c.48-.51,1-1,1.5-1.48s1-1,1.53-1.44l1.58-1.4,1.64-1.33c.54-.45,1.1-.87,1.67-1.28s1.13-.85,1.72-1.24c1.2-.84,2.45-1.63,3.71-2.38q-2.5-1.67-5.09-3.21A97.73,97.73,0,0,0,76,55.05c-1,.54-2,1.1-3,1.7C72.39,57.09,71.83,57.49,71.24,57.86Z"/><path d="M129.9,55.91a1.91,1.91,0,0,1-1.64,1h-.15c-.6,0-1.3,0-2,0s-1.35,0-2,.07c-1.36.07-2.72.17-4.07.32q-2.77.3-5.53.79c.69.6,1.36,1.21,2,1.83L117.78,61l.62.57.59.61,2.34,2.42c.8.79,1.5,1.67,2.24,2.52l2.18,2.55-2.36-2.39c-.79-.79-1.55-1.61-2.41-2.33l-2.49-2.24-.62-.56-.65-.52-1.31-1c-1-.79-2-1.55-3-2.28l-1,.2A76.54,76.54,0,0,0,96.31,63.6l-1.39.66c1.39,1.14,2.75,2.31,4.06,3.54L100.29,69l.65.6.62.63L104,72.72c.85.82,1.6,1.73,2.38,2.6L108.75,78l-2.5-2.48c-.84-.82-1.65-1.67-2.55-2.42l-2.63-2.32-.65-.58-.69-.55-1.38-1.08q-2.34-1.89-4.81-3.6c-1.54.78-3.05,1.6-4.53,2.51-.6.34-1.16.74-1.74,1.1s-1.16.75-1.72,1.16l-1.68,1.21L82.24,72.2c-.55.42-1.07.88-1.59,1.34s-1.06.89-1.56,1.37l-.83.81.59.57,1,1,.52.51.48.54,1.93,2.16c.66.7,1.22,1.49,1.82,2.25l1.77,2.28-2-2.12c-.65-.7-1.27-1.44-2-2.08l-2.08-2-.52-.49-.55-.46L78.19,77l-.68-.57c-.47.46-.92.92-1.36,1.41-1.93,2-5.48,6-7.14,8.2a108.19,108.19,0,0,1,6.78-8.52c.4-.51.82-1,1.26-1.47a68.35,68.35,0,0,0-8.19-5.58,62.14,62.14,0,0,0-8.1-4c-.22.22-.43.45-.64.68-1.94,2-5.55,6.59-7.21,8.82,1.53-2.32,5-7,6.85-9.14.15-.2.31-.39.48-.58l-1.61-.62c-1.75-.67-3.54-1.24-5.34-1.75-.9-.23-1.8-.48-2.71-.67-.45-.11-.9-.2-1.35-.28l-.67-.11-.63-.1a1.87,1.87,0,0,1-.41-.09c-3.4,5-5.34,10.33-5.34,15.6,0,18.72,13.39,19,41.9,19s50.17-13.84,51.63-27.08C136.31,64.7,133.88,59.94,129.9,55.91Z"/></g></g><g id="Camada_2-2" data-name="Camada 2"><path class="cls-2" d="M140.09,84.81c.19,13.33-16.2,29.39-44,29.39S45.34,103.52,45.34,84.81c0-3,11.64,13,15.55,10.69,15.72-9.25,43.24-5.83,62.19-12.15C128.17,81.66,135.23,62,135.23,62S139.82,66.09,140.09,84.81Z"/><path class="cls-2" d="M93.35,48.76c-1.34-.51-2.68-1-4-1.43-1-.32-2.09-.66-3.15-.93-.52-.15-1-.29-1.57-.41l-.78-.18c-.26-.06-1.55-.84-2.52-1.33A56.92,56.92,0,0,0,67.73,49.7l.48.17c1.14.4,2.25.86,3.36,1.3,2.2.94,4.38,1.92,6.5,3l1.43.74c.79-.45,1.58-.9,2.38-1.32A76.48,76.48,0,0,1,93.35,48.76Z"/><path class="cls-2" d="M81.44,56a95.5,95.5,0,0,1,8.87,5.47c1.87,1.3,3.7,2.63,5.48,4,.69-.4,1.4-.79,2.11-1.16a77.29,77.29,0,0,1,14.34-5.72q-2.4-1.6-4.86-3.07a86.26,86.26,0,0,0-9.86-5,75.36,75.36,0,0,0-14.79,4.87C82.3,55.53,81.87,55.74,81.44,56Z"/><path class="cls-2" d="M114.69,48.62h-.15c-.59,0-1.3,0-2,0s-1.35,0-2,.08c-1.36.06-2.72.17-4.08.32-1.58.17-3.15.39-4.72.65,2.29,1.31,4.52,2.7,6.67,4.21,1.92,1.34,3.81,2.74,5.63,4.2,2.62-.7,5.28-1.28,8-1.72,1.4-.24,2.82-.43,4.24-.59.71-.08,1.42-.14,2.14-.2l.75,0A58.08,58.08,0,0,0,116.07,48,1.92,1.92,0,0,1,114.69,48.62Z"/><path class="cls-2" d="M106,45.63c.86-.15,1.72-.27,2.59-.38a49.58,49.58,0,0,0-12.12-2.47,55.89,55.89,0,0,0-8.41.44c.81.29,1.6.61,2.4.91,2.11.88,4.2,1.8,6.23,2.82l1,.5h0A84,84,0,0,1,106,45.63Z"/><path class="cls-2" d="M66.48,64.65c.5-.49,1-1,1.54-1.45l1.57-1.39,1.65-1.33c.54-.45,1.1-.87,1.67-1.28S74,58.35,74.63,58s1.27-.86,1.91-1.27c-2-.85-4.09-1.62-6.16-2.33-1.1-.35-2.19-.72-3.29-1q-.82-.24-1.65-.45c-.54-.15-1.11-.28-1.61-.38h0a2,2,0,0,1-.48-.18,50.17,50.17,0,0,0-10.78,9.39c.48.13.95.27,1.42.42.95.28,1.88.63,2.82.95,1.84.7,3.66,1.45,5.43,2.3.81.39,1.6.78,2.38,1.19.14-.14.28-.29.41-.44C65.47,65.62,66,65.15,66.48,64.65Z"/><path class="cls-2" d="M73.68,60.29c-.59.37-1.16.75-1.72,1.16l-1.68,1.21-1.63,1.28c-.55.42-1.07.88-1.59,1.34s-1.06.89-1.56,1.37l-.27.26a65.45,65.45,0,0,1,7.11,4.37,68.47,68.47,0,0,1,7.88,6.41c.27-.29.53-.58.8-.86.47-.52,1-1,1.49-1.49s1-1,1.53-1.44l1.58-1.4,1.64-1.33c.54-.45,1.11-.87,1.68-1.28s1.12-.85,1.71-1.23c1.21-.84,2.45-1.63,3.71-2.39q-2.51-1.67-5.09-3.21A96,96,0,0,0,78.4,57.49c-1,.53-2,1.09-3,1.69C74.82,59.53,74.26,59.92,73.68,60.29Z"/><path class="cls-2" d="M132.34,58.34a2,2,0,0,1-1.65,1h-.15c-.59,0-1.3,0-2,0l-2,.07c-1.36.07-2.71.18-4.07.33-1.85.19-3.69.46-5.53.78.69.6,1.36,1.21,2,1.84l1.23,1.14.62.57.59.61,2.34,2.43c.8.78,1.51,1.66,2.24,2.51l2.18,2.55-2.36-2.39c-.79-.79-1.55-1.6-2.4-2.33l-2.5-2.23-.62-.56-.65-.52-1.31-1c-1-.79-1.94-1.54-2.94-2.28l-1,.2A76.28,76.28,0,0,0,98.75,66c-.47.21-.94.43-1.4.66,1.39,1.13,2.75,2.31,4.06,3.53l1.31,1.19.65.59.63.63,2.47,2.52c.85.81,1.6,1.72,2.38,2.6l2.33,2.64-2.5-2.47c-.84-.83-1.65-1.67-2.54-2.43l-2.64-2.32-.65-.58-.69-.54L100.78,71c-1.55-1.26-3.16-2.45-4.8-3.6-1.54.78-3.06,1.61-4.54,2.51-.59.34-1.16.74-1.74,1.11s-1.16.75-1.71,1.16l-1.69,1.2-1.63,1.29c-.55.41-1.07.87-1.59,1.33s-1,.9-1.55,1.38l-.84.8c.2.19.4.38.59.58l1,1,.52.51.48.54L85.24,83c.66.7,1.23,1.48,1.82,2.24l1.77,2.28-2-2.12c-.66-.7-1.28-1.43-2-2.07l-2.08-2-.52-.49-.55-.46-1.1-.91c-.23-.2-.46-.38-.69-.57-.46.45-.92.92-1.36,1.4-1.93,2-5.47,6-7.14,8.2A108.19,108.19,0,0,1,78.22,80c.4-.5.83-1,1.26-1.46a67.56,67.56,0,0,0-8.19-5.58,63.5,63.5,0,0,0-8.1-4l-.64.68c-1.93,2-5.54,6.59-7.21,8.83,1.53-2.33,5-7,6.85-9.15q.24-.3.48-.57c-.53-.22-1.07-.43-1.6-.63-1.76-.67-3.55-1.24-5.35-1.75-.9-.23-1.8-.48-2.71-.67q-.67-.15-1.35-.27c-.22,0-.45-.09-.67-.12l-.63-.1a1.37,1.37,0,0,1-.4-.09c-3.4,5-5.35,10.33-5.35,15.61,0,18.71,13.39,18.95,41.91,18.95s50.17-13.85,51.62-27.09C138.74,67.13,136.32,62.38,132.34,58.34Z"/></g></g></svg>